<svg width="454" height="202" viewBox="0 0 454 202" fill="none" xmlns="http://www.w3.org/2000/svg">
<path d="M131.511 11.876H88.0231L0 118.499L14.1466 136.75V158.319H88.0231V190.018H131.511V158.319H163.209V118.499H131.511V11.876ZM88.0231 64.2707V118.499H43.4876L88.0231 64.2707Z" fill="#03FFA4"/>
<path d="M422.301 11.876H378.814L290.791 118.499L304.937 136.75V158.319H378.814V190.018H422.301V158.319H454V118.499H422.301V11.876ZM378.814 64.2707V118.499H334.278L378.814 64.2707Z" fill="#03FFA4"/>
<path d="M315.329 100.947C315.329 153.08 282.32 193.162 230.449 193.162C177.793 193.162 145.308 153.08 145.308 100.947C145.308 48.2904 177.793 8.73242 230.449 8.73242C282.058 8.73242 315.329 48.2904 315.329 100.947ZM271.841 100.947C221.804 86.102 250.097 48.2904 230.449 48.2904C210.801 48.2904 188.796 65.8426 188.796 100.947C235.776 103.567 210.801 153.604 230.449 153.604C250.097 153.604 271.841 136.313 271.841 100.947Z" fill="#03FFA4"/>
<path fill-rule="evenodd" clip-rule="evenodd" d="M298.86 172.414C282.41 190.875 258.787 201.894 230.45 201.894C201.751 201.894 178.047 190.898 161.607 172.407C145.261 154.022 136.576 128.794 136.576 100.947C136.576 72.8544 145.252 47.613 161.618 29.2784C178.078 10.8391 201.787 0 230.45 0C258.63 0 282.25 10.8679 298.744 29.264C315.158 47.57 324.061 72.8013 324.061 100.947C324.061 128.83 315.225 154.049 298.86 172.414ZM263.109 100.947C263.109 69.7701 244.426 57.0229 230.45 57.0229C216.409 57.0229 197.528 69.8412 197.528 100.947C197.528 132.283 216.38 144.871 230.45 144.871C244.455 144.871 263.109 132.354 263.109 100.947ZM230.45 193.162C282.32 193.162 315.329 153.08 315.329 100.947C315.329 48.2904 282.058 8.73245 230.45 8.73245C177.793 8.73245 145.308 48.2904 145.308 100.947C145.308 153.08 177.793 193.162 230.45 193.162ZM230.45 48.2904C250.098 48.2904 271.841 65.8427 271.841 100.947C271.841 136.314 250.098 153.604 230.45 153.604C210.801 153.604 188.796 136.314 188.796 100.947C188.796 65.8427 210.801 48.2904 230.45 48.2904Z" fill="#1E1E24"/>
</svg>
