<svg width="128" height="104" viewBox="0 0 128 104" fill="none" xmlns="http://www.w3.org/2000/svg">
<circle cx="32.5" cy="71.5" r="32.5" fill="#27272D"/>
<circle cx="92.5" cy="80.5" r="22.5" fill="#27272D"/>
<circle cx="77" cy="40" r="16" fill="#27272D"/>
<circle cx="50" cy="25" r="13" fill="#27272D"/>
<circle cx="112.5" cy="42.5" r="15.5" fill="#27272D"/>
<circle cx="16.5" cy="23.5" r="15.5" fill="#27272D"/>
<circle cx="71.5" cy="10.5" r="10.5" fill="#27272D"/>
<path d="M64 64.5C70.9036 64.5 76.5 58.9036 76.5 52C76.5 45.0964 70.9036 39.5 64 39.5C57.0964 39.5 51.5 45.0964 51.5 52C51.5 58.9036 57.0964 64.5 64 64.5Z" stroke="#03FFA4" stroke-width="4.16667" stroke-linecap="round" stroke-linejoin="round"/>
<path d="M94.8333 64.5001C94.2787 65.7568 94.1133 67.1509 94.3583 68.5025C94.6034 69.8542 95.2478 71.1014 96.2083 72.0834L96.4584 72.3334C97.2332 73.1074 97.8478 74.0264 98.2672 75.0381C98.6865 76.0497 98.9024 77.1341 98.9024 78.2292C98.9024 79.3244 98.6865 80.4088 98.2672 81.4204C97.8478 82.4321 97.2332 83.3511 96.4584 84.1251C95.6844 84.8999 94.7653 85.5145 93.7537 85.9339C92.742 86.3533 91.6576 86.5691 90.5625 86.5691C89.4674 86.5691 88.383 86.3533 87.3713 85.9339C86.3597 85.5145 85.4406 84.8999 84.6667 84.1251L84.4167 83.8751C83.4347 82.9145 82.1874 82.2701 80.8358 82.0251C79.4842 81.78 78.0901 81.9454 76.8334 82.5001C75.601 83.0283 74.5499 83.9053 73.8096 85.0231C73.0693 86.141 72.672 87.451 72.6667 88.7917V89.5001C72.6667 91.7102 71.7887 93.8298 70.2259 95.3926C68.6631 96.9554 66.5435 97.8334 64.3334 97.8334C62.1232 97.8334 60.0036 96.9554 58.4408 95.3926C56.878 93.8298 56 91.7102 56 89.5001V89.1251C55.9678 87.7459 55.5213 86.4084 54.7188 85.2863C53.9163 84.1643 52.7947 83.3096 51.5 82.8334C50.2433 82.2788 48.8492 82.1133 47.4976 82.3584C46.1459 82.6035 44.8987 83.2478 43.9167 84.2084L43.6667 84.4584C42.8927 85.2332 41.9737 85.8479 40.962 86.2672C39.9504 86.6866 38.866 86.9025 37.7709 86.9025C36.6757 86.9025 35.5913 86.6866 34.5797 86.2672C33.568 85.8479 32.649 85.2332 31.875 84.4584C31.1002 83.6845 30.4856 82.7654 30.0662 81.7537C29.6468 80.7421 29.431 79.6577 29.431 78.5626C29.431 77.4674 29.6468 76.3831 30.0662 75.3714C30.4856 74.3598 31.1002 73.4407 31.875 72.6667L32.125 72.4167C33.0856 71.4347 33.73 70.1875 33.975 68.8359C34.2201 67.4842 34.0547 66.0901 33.5 64.8334C32.9718 63.601 32.0948 62.55 30.977 61.8097C29.8591 61.0694 28.5491 60.6721 27.2084 60.6667H26.5C24.2899 60.6667 22.1703 59.7888 20.6075 58.226C19.0447 56.6632 18.1667 54.5436 18.1667 52.3334C18.1667 50.1233 19.0447 48.0037 20.6075 46.4409C22.1703 44.8781 24.2899 44.0001 26.5 44.0001H26.875C28.2542 43.9678 29.5917 43.5214 30.7138 42.7189C31.8358 41.9163 32.6905 40.7948 33.1667 39.5001C33.7213 38.2433 33.8868 36.8493 33.6417 35.4976C33.3966 34.146 32.7523 32.8987 31.7917 31.9167L31.5417 31.6667C30.7669 30.8928 30.1522 29.9737 29.7329 28.9621C29.3135 27.9504 29.0976 26.866 29.0976 25.7709C29.0976 24.6758 29.3135 23.5914 29.7329 22.5797C30.1522 21.5681 30.7669 20.649 31.5417 19.8751C32.3156 19.1003 33.2347 18.4856 34.2464 18.0662C35.258 17.6469 36.3424 17.431 37.4375 17.431C38.5326 17.431 39.617 17.6469 40.6287 18.0662C41.6403 18.4856 42.5594 19.1003 43.3334 19.8751L43.5834 20.1251C44.5653 21.0857 45.8126 21.73 47.1642 21.9751C48.5159 22.2202 49.91 22.0547 51.1667 21.5001H51.5C52.7324 20.9719 53.7834 20.0949 54.5237 18.977C55.2641 17.8591 55.6613 16.5492 55.6667 15.2084V14.5001C55.6667 12.2899 56.5447 10.1703 58.1075 8.60752C59.6703 7.04472 61.7899 6.16675 64 6.16675C66.2102 6.16675 68.3298 7.04472 69.8926 8.60752C71.4554 10.1703 72.3334 12.2899 72.3334 14.5001V14.8751C72.3387 16.2159 72.736 17.5258 73.4763 18.6437C74.2166 19.7616 75.2676 20.6386 76.5 21.1667C77.7568 21.7214 79.1508 21.8868 80.5025 21.6418C81.8541 21.3967 83.1014 20.7523 84.0833 19.7917L84.3333 19.5417C85.1073 18.7669 86.0264 18.1523 87.038 17.7329C88.0497 17.3135 89.1341 17.0977 90.2292 17.0977C91.3243 17.0977 92.4087 17.3135 93.4204 17.7329C94.432 18.1523 95.3511 18.7669 96.125 19.5417C96.8998 20.3157 97.5145 21.2348 97.9338 22.2464C98.3532 23.2581 98.5691 24.3425 98.5691 25.4376C98.5691 26.5327 98.3532 27.6171 97.9338 28.6287C97.5145 29.6404 96.8998 30.5595 96.125 31.3334L95.875 31.5834C94.9144 32.5654 94.2701 33.8126 94.025 35.1643C93.7799 36.5159 93.9454 37.91 94.5 39.1667V39.5001C95.0282 40.7325 95.9052 41.7835 97.0231 42.5238C98.141 43.2641 99.4509 43.6614 100.792 43.6667H101.5C103.71 43.6667 105.83 44.5447 107.393 46.1075C108.955 47.6703 109.833 49.7899 109.833 52.0001C109.833 54.2102 108.955 56.3298 107.393 57.8926C105.83 59.4554 103.71 60.3334 101.5 60.3334H101.125C99.7842 60.3388 98.4743 60.736 97.3564 61.4764C96.2385 62.2167 95.3615 63.2677 94.8333 64.5001V64.5001Z" stroke="#03FFA4" stroke-width="4.16667" stroke-linecap="round" stroke-linejoin="round"/>
</svg>
