<svg width="149" height="27" viewBox="0 0 149 27" fill="none" xmlns="http://www.w3.org/2000/svg">
<rect width="149" height="27" fill="#E5E5E5"/>
<path id="Rectangle 73" d="M-65 -533H1135V235H-65V-533Z" fill="#1E1E24"/>
<g id="Group 257">
<g id="Group 256">
<g id="&#208;&#164;&#209;&#131;&#209;&#130;&#208;&#181;&#209;&#128;">
<g id="Group 118">
<rect id="Rectangle 44" x="-65" y="-53" width="1200" height="289" fill="#27272D"/>
<rect id="Rectangle 45" x="-65" y="-53" width="1200" height="289" fill="#27272D"/>
<g id="Group 116">
<g id="Frame" clip-path="url(#clip0_0_1)">
<g id="Group">
<path id="Vector" d="M4.97446 3.39569H5.32978C5.73185 2.71394 6.35833 2.12558 7.19987 1.63995C8.04142 1.15431 9.10737 0.911499 10.3884 0.911499C11.5011 0.911499 12.5671 1.13564 13.5863 1.58391C14.6055 2.03219 15.5031 2.66724 16.2698 3.48908C17.0366 4.30158 17.6537 5.28218 18.1025 6.42154C18.5514 7.56091 18.7758 8.81234 18.7758 10.1852C18.7758 11.558 18.5514 12.8095 18.1025 13.9488C17.6537 15.0882 17.0366 16.0595 16.2698 16.8813C15.5031 17.6938 14.6055 18.3288 13.5863 18.7771C12.5671 19.2254 11.5011 19.4495 10.3884 19.4495C9.10737 19.4495 8.05077 19.2067 7.20922 18.7211C6.36768 18.2355 5.7412 17.6471 5.33913 16.9653H4.97446L5.32978 19.4495V26.5566H0V1.48118H4.97446V3.39569ZM9.21023 5.88922C8.63985 5.88922 8.09752 5.99195 7.59259 6.18807C7.07832 6.38419 6.62949 6.6737 6.24612 7.0566C5.8534 7.4395 5.54484 7.88777 5.32043 8.41076C5.09601 8.93375 4.98381 9.52211 4.98381 10.1852C4.98381 10.8483 5.09601 11.446 5.32043 11.9783C5.54484 12.5106 5.8534 12.9589 6.24612 13.3324C6.63884 13.6967 7.08767 13.9862 7.60194 14.1823C8.10687 14.3784 8.6492 14.4811 9.21958 14.4811C9.78996 14.4811 10.3323 14.3784 10.8372 14.1823C11.3421 13.9768 11.8003 13.6967 12.193 13.3324C12.5858 12.9682 12.8943 12.5106 13.1187 11.9783C13.3431 11.446 13.4553 10.8483 13.4553 10.1852C13.4553 9.52211 13.3431 8.93375 13.1187 8.41076C12.8943 7.88777 12.5858 7.4395 12.193 7.0566C11.8003 6.6737 11.3515 6.38419 10.8372 6.18807C10.3229 5.98261 9.78061 5.88922 9.21023 5.88922Z" fill="white"/>
<path id="Vector_2" d="M21.5903 1.48118H26.5647V3.6852H26.92C27.3969 2.92874 28.0701 2.275 28.9491 1.73334C29.828 1.18233 30.8005 0.911499 31.8664 0.911499C32.5023 0.911499 33.0633 0.986211 33.5402 1.14498C34.017 1.30374 34.4098 1.47184 34.7183 1.66796L33.3251 6.42154C33.0165 6.25344 32.6893 6.12269 32.3433 6.0293C31.9973 5.93591 31.5579 5.88922 31.0062 5.88922C29.6784 5.88922 28.6686 6.34683 27.9673 7.2714C27.266 8.19596 26.92 9.4007 26.92 10.895V18.8892H21.5809V1.48118H21.5903Z" fill="white"/>
<path id="Vector_3" d="M44.1717 0.911499C45.5275 0.911499 46.7711 1.14498 47.9212 1.60259C49.0713 2.0602 50.0625 2.7046 50.904 3.5171C51.7456 4.32959 52.4001 5.3102 52.8583 6.44956C53.3165 7.58893 53.5502 8.83102 53.5502 10.1758C53.5502 11.5207 53.3165 12.7721 52.8583 13.9021C52.4001 15.0415 51.7456 16.0128 50.904 16.8346C50.0625 17.6471 49.0713 18.2915 47.9212 18.7491C46.7711 19.2067 45.5182 19.4402 44.1717 19.4402C42.8252 19.4402 41.5723 19.2067 40.4221 18.7491C39.272 18.2821 38.2809 17.6471 37.4393 16.8346C36.5978 16.0128 35.9433 15.0415 35.4851 13.9021C35.0269 12.7628 34.7932 11.5207 34.7932 10.1758C34.7932 8.83102 35.0269 7.57959 35.4851 6.44956C35.9433 5.3102 36.5978 4.33893 37.4393 3.5171C38.2809 2.69526 39.272 2.0602 40.4221 1.60259C41.5629 1.14498 42.8159 0.911499 44.1717 0.911499ZM44.1717 14.4812C44.714 14.4812 45.2283 14.3784 45.7145 14.1823C46.2007 13.9768 46.6309 13.6967 47.0142 13.3324C47.3976 12.9682 47.6875 12.5106 47.9025 11.9783C48.1176 11.446 48.2205 10.8483 48.2205 10.1852C48.2205 9.52211 48.1176 8.93375 47.9025 8.41076C47.6875 7.88778 47.3976 7.4395 47.0142 7.0566C46.6309 6.6737 46.2007 6.38419 45.7145 6.18807C45.2283 5.98261 44.714 5.88922 44.1717 5.88922C43.6294 5.88922 43.1057 5.99195 42.6289 6.18807C42.1426 6.39353 41.7125 6.68304 41.3291 7.0566C40.9458 7.4395 40.6559 7.88778 40.4408 8.41076C40.2258 8.93375 40.1229 9.52211 40.1229 10.1852C40.1229 10.8483 40.2258 11.446 40.4408 11.9783C40.6559 12.5106 40.9458 12.9589 41.3291 13.3324C41.7125 13.6967 42.1426 13.9862 42.6289 14.1823C43.1057 14.3784 43.62 14.4812 44.1717 14.4812Z" fill="#03FFA4"/>
<path id="Vector_4" d="M60.4883 10.0357L54.5133 1.4718H60.9184L63.5459 5.66504H63.9012L66.323 1.4718H72.9338L66.8186 10.0357L72.8964 18.8798H66.5755L63.8358 14.6492H63.4805L60.8156 18.8798H54.4853L60.4883 10.0357Z" fill="white"/>
<path id="Vector_5" d="M80.7602 18.1421L73.3639 1.4812H79.5165L83.5372 11.0724H83.8926L87.7356 1.4812H93.748L82.8266 26.5566H76.9919L80.7602 18.1421Z" fill="white"/>
<path id="Vector_6" d="M99.7136 19.0386V5.83315L96.7308 7.07525L95.3001 3.75988L100.508 1.32239H103.594V19.0386H99.7136Z" fill="white"/>
<path id="Vector_7" d="M113.328 19.4497C111.673 19.4497 110.261 19.0481 109.111 18.2356C107.961 17.4231 107.166 16.2371 106.717 14.6868L110.429 13.2112C110.794 14.8549 111.757 15.6674 113.337 15.6674C113.954 15.6674 114.506 15.49 114.974 15.1257C115.441 14.7615 115.675 14.2759 115.675 13.6782C115.675 12.2773 114.684 11.5769 112.692 11.5769H111.159V8.05606H112.589C112.898 8.05606 113.206 8.0187 113.496 7.95333C113.786 7.88796 114.057 7.77589 114.291 7.62646C114.525 7.47704 114.712 7.29026 114.852 7.04744C114.992 6.80463 115.058 6.50578 115.058 6.14155C115.058 5.69328 114.889 5.2917 114.553 4.94615C114.216 4.60061 113.749 4.43251 113.141 4.43251C112.486 4.43251 111.963 4.60995 111.57 4.97417C111.177 5.33839 110.915 5.76799 110.775 6.2723L107.222 4.82475C107.39 4.35779 107.643 3.89084 107.961 3.42389C108.279 2.95694 108.69 2.53668 109.176 2.17245C109.672 1.79889 110.252 1.50004 110.915 1.26657C111.579 1.03309 112.337 0.921021 113.188 0.921021C114.067 0.921021 114.871 1.04243 115.591 1.28524C116.311 1.52806 116.918 1.85493 117.414 2.26584C117.919 2.67676 118.302 3.17173 118.583 3.74142C118.863 4.3111 118.994 4.92748 118.994 5.58121C118.994 6.09486 118.929 6.57115 118.798 7.01009C118.667 7.43968 118.499 7.82258 118.293 8.15879C118.087 8.495 117.854 8.78451 117.592 9.00864C117.33 9.24212 117.077 9.41956 116.816 9.54097V9.80246C117.648 10.1293 118.33 10.6523 118.863 11.3808C119.396 12.1092 119.668 13.0338 119.668 14.1545C119.668 14.9109 119.518 15.6207 119.228 16.2651C118.938 16.9095 118.517 17.4698 117.975 17.9461C117.433 18.4224 116.769 18.796 115.993 19.0575C115.198 19.319 114.31 19.4497 113.328 19.4497Z" fill="white"/>
<path id="Vector_8" d="M128.233 19.4497C126.578 19.4497 125.166 19.0481 124.016 18.2356C122.865 17.4231 122.071 16.2371 121.612 14.6868L125.325 13.2112C125.689 14.8549 126.652 15.6674 128.233 15.6674C128.85 15.6674 129.401 15.49 129.869 15.1257C130.336 14.7615 130.57 14.2759 130.57 13.6782C130.57 12.2773 129.579 11.5769 127.587 11.5769H126.054V8.05606H127.475C127.784 8.05606 128.092 8.0187 128.382 7.95333C128.672 7.88796 128.943 7.77589 129.177 7.62646C129.411 7.47704 129.598 7.29026 129.738 7.04744C129.878 6.80463 129.944 6.50578 129.944 6.14155C129.944 5.69328 129.775 5.2917 129.439 4.94615C129.102 4.60061 128.635 4.43251 128.027 4.43251C127.372 4.43251 126.849 4.60995 126.456 4.97417C126.063 5.33839 125.801 5.76799 125.661 6.2723L122.108 4.82475C122.286 4.35779 122.529 3.89084 122.847 3.42389C123.165 2.95694 123.576 2.53668 124.062 2.17245C124.558 1.79889 125.138 1.50004 125.801 1.26657C126.465 1.03309 127.223 0.921021 128.074 0.921021C128.953 0.921021 129.757 1.04243 130.477 1.28524C131.197 1.52806 131.804 1.85493 132.3 2.26584C132.805 2.67676 133.188 3.17173 133.469 3.74142C133.749 4.3111 133.88 4.92748 133.88 5.58121C133.88 6.09486 133.815 6.57115 133.684 7.01009C133.553 7.43968 133.385 7.82258 133.179 8.15879C132.973 8.495 132.74 8.78451 132.478 9.00864C132.216 9.24212 131.963 9.41956 131.702 9.54097V9.80246C132.534 10.1293 133.216 10.6523 133.749 11.3808C134.282 12.1092 134.554 13.0338 134.554 14.1545C134.554 14.9109 134.404 15.6207 134.114 16.2651C133.824 16.9095 133.403 17.4698 132.861 17.9461C132.319 18.4224 131.655 18.796 130.879 19.0575C130.103 19.319 129.224 19.4497 128.233 19.4497Z" fill="white"/>
<path id="Vector_9" d="M144.39 4.95522H136.639L136.695 1.33167H149.009V5.11398L140.762 19.4588L137.546 17.647L144.521 5.21671L144.39 4.95522Z" fill="white"/>
</g>
</g>
</g>
</g>
</g>
</g>
</g>
<defs>
<clipPath id="clip0_0_1">
<rect width="149" height="25.6451" fill="white" transform="translate(0 0.911499)"/>
</clipPath>
</defs>
</svg>
