<svg width="70" height="46" viewBox="0 0 70 46" fill="none" xmlns="http://www.w3.org/2000/svg">
<rect width="70" height="46" fill="#E5E5E5"/>
<path id="Rectangle 73" d="M-1025 -360H175V408H-1025V-360Z" fill="#1E1E24"/>
<g id="Group 257">
<g id="Group 256">
<g id="&#208;&#161;&#208;&#191;&#208;&#190;&#209;&#129;&#208;&#190;&#208;&#177;&#209;&#139; &#208;&#190;&#208;&#191;&#208;&#187;&#208;&#176;&#209;&#130;&#209;&#139;">
<rect id="Rectangle 43" x="-1025" y="-27" width="1200" height="100" fill="#27272D"/>
<g id="mc_symbol 1" clip-path="url(#clip0_0_1)">
<path id="Vector" d="M44.2354 8.01428H25.7698V37.9805H44.2354V8.01428Z" fill="#FF5F00"/>
<path id="Vector_2" d="M27.6718 23C27.6695 20.1146 28.3279 17.2664 29.597 14.671C30.8662 12.0757 32.7129 9.80115 34.9974 8.0196C32.1679 5.81023 28.7699 4.43636 25.1918 4.055C21.6137 3.67364 17.9997 4.30018 14.763 5.86301C11.5263 7.42584 8.79742 9.86192 6.88824 12.8928C4.97906 15.9237 3.96661 19.4271 3.96661 23.0027C3.96661 26.5782 4.97906 30.0817 6.88824 33.1126C8.79742 36.1435 11.5263 38.5795 14.763 40.1424C17.9997 41.7052 21.6137 42.3317 25.1918 41.9504C28.7699 41.569 32.1679 40.1951 34.9974 37.9858C32.7122 36.2037 30.865 33.9283 29.5959 31.332C28.3267 28.7356 27.6687 25.8864 27.6718 23Z" fill="#EB001B"/>
<path id="Vector_3" d="M64.1982 34.8097V34.1956H64.4646V34.0686H63.8306V34.1956H64.081V34.8097H64.1982ZM65.4289 34.8097V34.0686H65.2371L65.0134 34.5979L64.7896 34.0686H64.5978V34.8097H64.7363V34.2486L64.9441 34.7303H65.088L65.2957 34.2486V34.8097H65.4289Z" fill="#F79E1B"/>
<path id="Vector_4" d="M66.0309 23C66.0309 26.5758 65.0182 30.0794 63.1087 33.1104C61.1991 36.1414 58.4698 38.5775 55.2327 40.1401C51.9956 41.7027 48.3813 42.3288 44.803 41.9469C41.2246 41.565 37.8266 40.1905 34.9974 37.9804C37.281 36.1973 39.1271 33.9221 40.3966 31.3266C41.6661 28.7311 42.3257 25.8831 42.3257 22.9973C42.3257 20.1116 41.6661 17.2635 40.3966 14.668C39.1271 12.0725 37.281 9.79737 34.9974 8.01424C37.8266 5.80418 41.2246 4.42964 44.803 4.04773C48.3813 3.66582 51.9956 4.29196 55.2327 5.85457C58.4698 7.41718 61.1991 9.85321 63.1087 12.8842C65.0182 15.9152 66.0309 19.4189 66.0309 22.9947V23Z" fill="#F79E1B"/>
</g>
</g>
</g>
</g>
<defs>
<clipPath id="clip0_0_1">
<rect width="70" height="46" fill="white"/>
</clipPath>
</defs>
</svg>
