<svg width="194" height="43" viewBox="0 0 194 43" fill="none" xmlns="http://www.w3.org/2000/svg">
<path d="M14.4888 6.37621H12.7227C10.0521 6.37621 7.46782 8.13771 7.46782 13.2507C7.46782 18.1916 9.83641 19.7816 12.7227 19.7816H14.4888V6.37621ZM11.7319 22.5314L6.47691 34.3037H2.6428L8.41551 21.7145C5.70112 20.3396 3.89193 17.848 3.89193 13.2507C3.89193 6.80585 7.98411 3.58336 12.8521 3.58336H17.8058V34.3037H14.4888V22.5314H11.7319Z" fill="#FF0000"/>
<path d="M82.2524 23.4766C82.2524 16.6875 84.8808 12.3483 89.9639 12.3483C91.9018 12.3483 93.0219 12.864 93.9697 13.4651L93.4958 16.6451C92.5912 15.8714 91.2989 15.1413 89.9204 15.1413C87.508 15.1413 85.7854 17.8479 85.7854 23.3045C85.7854 28.718 87.0773 31.812 89.7911 31.812C91.4279 31.812 92.6774 31.1673 93.4527 30.4801L94.228 32.9719C93.0651 33.9595 91.6866 34.6042 89.7049 34.6042C85.0525 34.6042 82.2524 30.8668 82.2524 23.4766ZM72.4314 23.519V34.3037H69.0712V12.6489H72.4314V22.6597L77.6435 12.6489H81.0467L75.6622 22.8318L81.8217 34.3037H78.1605L72.4314 23.519ZM56.6221 21.5H62.1792C62.1792 17.805 61.576 15.0981 59.6378 15.0981C57.5699 15.0981 56.8377 17.6328 56.6221 21.5ZM60.3268 34.6042C55.8469 34.6042 53.0903 31.0388 53.0903 24.3795C53.0903 17.4184 55.0288 12.3483 59.6378 12.3483C63.2562 12.3483 65.6255 15.0552 65.6255 22.4016V24.2498H56.579C56.579 29.1483 57.9575 31.7259 60.6282 31.7259C62.5237 31.7259 64.0315 30.8668 64.893 30.2657L65.6687 32.8421C64.2902 33.9171 62.4806 34.6042 60.3268 34.6042ZM46.0254 15.3557H42.2776V15.7429C42.2776 20.2972 42.0624 26.9559 40.2532 31.5539H46.0254V15.3557ZM51.0651 38.5574H48.0502V34.3037H38.7454V38.5574H35.7305V31.5539H37.0659C39.0468 26.9559 39.2624 20.2542 39.2624 14.4964V12.6489H49.3425V31.5539H51.0651V38.5574ZM33.7919 12.6489V34.3037H30.4748V24.594H25.478V34.3037H22.1179V12.6489H25.478V21.8429H30.4748V12.6489H33.7919Z" fill="white"/>
<path d="M114.794 5.34486H108.117C107.988 13.1216 107.772 19.0507 107.428 23.4765C107.04 28.0733 106.35 31.1236 105.188 32.5428H114.794V5.34486ZM117.077 34.3036H103.896L103.594 39.4166H101.914V32.5428H102.819C104.326 31.2956 105.058 27.8587 105.489 23.4765C105.92 18.9223 106.049 12.1332 106.179 3.58329H116.948V32.5428H119.059V39.4166H117.378L117.077 34.3036Z" fill="white"/>
<path d="M123.24 22.2295H131.124C131.468 16.4731 129.746 13.8953 127.549 13.8953C125.266 13.8953 123.412 16.8166 123.24 22.2295ZM127.979 32.9718C130.864 32.9718 132.372 30.6523 132.372 30.6523L133.019 32.2833C133.019 32.2833 131.382 34.7325 127.936 34.7325C123.328 34.7325 121.216 30.5648 121.216 23.4765C121.216 16.387 123.886 12.2193 127.549 12.2193C131.296 12.2193 133.707 16.1295 133.019 23.8209H123.198C123.284 29.7493 124.834 32.9718 127.979 32.9718Z" fill="white"/>
<path d="M146.289 23.8632H138.88V34.3037H136.856V12.6489H138.88V22.2296H146.289V12.6489H148.313V34.3037H146.289V23.8632Z" fill="white"/>
<path d="M155.123 22.2732V32.7136H156.416C159.474 32.7136 161.542 31.211 161.542 27.4723C161.542 23.821 159.733 22.2732 156.631 22.2732H155.123ZM153.1 12.6489H155.123V20.6839H156.718C160.853 20.6839 163.524 22.918 163.524 27.4299C163.524 32.0265 160.681 34.3037 156.588 34.3037H153.1V12.6489Z" fill="white"/>
<path d="M168.996 14.325V34.3037H167.016V12.6489H176.191V14.325H168.996Z" fill="white"/>
<path d="M189.419 19.2229C189.419 18.1055 189.504 17.1603 189.591 16.2579H189.461C189.16 17.2033 188.773 18.1055 188.299 19.0508L181.235 34.3037H179.512V12.6489H181.407V27.6867C181.407 28.8464 181.319 29.7918 181.235 30.737H181.363C181.665 29.7494 182.095 28.8042 182.526 27.8588L189.591 12.6489H191.357V34.3037H189.419V19.2229Z" fill="white"/>
</svg>
