<svg width="166" height="50" viewBox="0 0 166 50" fill="none" xmlns="http://www.w3.org/2000/svg">
<rect width="166" height="50" fill="#E5E5E5"/>
<path id="Rectangle 73" d="M-63 -359H1137V409H-63V-359Z" fill="#1E1E24"/>
<g id="Group 257">
<g id="Group 256">
<g id="&#208;&#161;&#208;&#191;&#208;&#190;&#209;&#129;&#208;&#190;&#208;&#177;&#209;&#139; &#208;&#190;&#208;&#191;&#208;&#187;&#208;&#176;&#209;&#130;&#209;&#139;">
<rect id="Rectangle 43" x="-63" y="-26" width="1200" height="100" fill="#27272D"/>
<g id="WebMoney_logo_blue 1" clip-path="url(#clip0_0_1)">
<g id="Layer 1">
<path id="Combined Shape" d="M138.173 9.00659C140.789 9.00659 143.278 9.60229 145.511 10.6679C145.861 10.825 146.214 11.0129 146.563 11.2011L145.031 12.5494L142.736 10.1982L138.78 13.6462L136.45 11.1694L129.176 17.5961L133.833 22.6433L132.015 24.2104L136.61 29.2576L134.792 30.824L141.364 38.003L145.254 34.4918L148.638 38.2546C147.967 38.7562 147.233 39.2588 146.437 39.697C144.012 41.0448 141.204 41.827 138.205 41.827C128.984 41.827 121.488 34.4616 121.488 25.4027C121.456 16.405 128.953 9.00659 138.173 9.00659ZM135.11 24.3988L139.098 20.8876L142.672 24.8061L138.683 28.317L135.11 24.3988ZM137.95 31.1703L141.906 27.628L145.511 31.5461L141.523 35.0575L137.95 31.1703ZM132.272 17.7219L136.259 14.2107L139.832 18.1291L135.844 21.6402L132.272 17.7219ZM139.576 15.8404L142.544 13.2073L145.224 16.1228L142.257 18.787L139.576 15.8404ZM144.873 27.9096L147.839 25.2763L150.52 28.2222L147.552 30.8572L144.873 27.9096ZM147.489 33.835L150.456 31.2013L153.134 34.1166L150.168 36.7805L147.489 33.835ZM148.701 20.2919L150.679 18.5362L152.465 20.4805L150.488 22.2356L148.701 20.2919ZM146.149 14.4924L148.127 12.706L149.914 14.6806L147.935 16.4361L146.149 14.4924ZM151.221 26.0919L153.199 24.3363L155.017 26.28L153.008 28.0351L151.221 26.0919ZM142.32 21.7343L145.288 19.101L147.967 22.0159L145.001 24.6497L142.32 21.7343Z" fill="#036CB5"/>
<g id="Group">
<g id="Group 27">
<mask id="mask0_0_1" style="mask-type:alpha" maskUnits="userSpaceOnUse" x="10" y="16" width="19" height="16">
<g id="mask 2 2">
<g id="Group_2">
<path id="path 1 2" d="M10.9828 16.3774V31.5299H28.4204V16.3774H10.9828Z" fill="white"/>
</g>
</g>
</mask>
<g mask="url(#mask0_0_1)">
<path id="Fill 25" d="M19.7339 20.8643H19.5834L16.7582 31.5299H14.4491L10.9828 16.3774H13.3787L15.7751 27.6837H15.9248L18.7057 16.3774H20.6105L23.5845 27.6837H23.7343L25.9169 16.3774H28.4204L24.9532 31.5299H22.6423L19.7339 20.8643Z" fill="#036CB5"/>
</g>
</g>
<path id="Fill 28" d="M31.46 25.0793H36.3586C36.2523 22.8359 35.1606 21.9391 34.0056 21.9391C32.7006 21.9391 31.6944 22.9434 31.46 25.0793ZM38.07 29.0983V30.7228C37.1074 31.2783 35.8244 31.7061 34.283 31.7061C30.6896 31.7061 29.2134 29.4834 29.2134 26.1071C29.2134 22.8573 30.8605 20.5063 34.0698 20.5063C36.7435 20.5063 38.3919 22.2386 38.3919 25.7213V26.5122H31.4171C31.4171 29.076 32.4648 30.209 34.6694 30.209C35.8244 30.209 36.8941 29.8022 38.07 29.0983Z" fill="#036CB5"/>
<path id="Fill 30" d="M43.3684 29.9924C44.0532 30.2916 44.8026 30.3358 45.3384 30.3358C46.9212 30.3358 48.1181 29.3513 48.1181 25.89C48.1181 23.1758 47.134 22.2995 45.7012 22.2995C44.8447 22.2995 44.2245 22.5354 43.3684 23.0046V29.9924H43.3684ZM43.391 21.4236C44.0312 21.0827 45.1222 20.6324 46.278 20.6324C48.9313 20.6324 50.3649 22.4703 50.3649 25.89C50.3649 29.8868 48.439 31.8316 45.3384 31.8316C44.2036 31.8316 42.4492 31.4681 41.1648 30.7828V15.8669L43.391 15.3334V21.4236H43.391Z" fill="#036CB5"/>
<path id="Fill 32" d="M59.9944 28.3148H60.1016L64.6792 16.368H67.3336V31.5217H65.023V20.5358H64.8301L60.4649 31.5217H59.0968L54.7306 20.7927H54.5388V31.5217H52.613V16.368H55.2026L59.9944 28.3148Z" fill="#036CB5"/>
<path id="Fill 34" d="M76.774 26.1064C76.774 23.2215 75.5981 22.0039 74.1433 22.0039C72.7317 22.0039 71.5111 23.2215 71.5111 26.1064C71.5111 29.0347 72.625 30.209 74.1433 30.209C75.6616 30.209 76.774 29.0347 76.774 26.1064ZM69.2655 26.1064C69.2655 22.3651 71.32 20.5063 74.1433 20.5063C76.9683 20.5063 79.0217 22.3651 79.0217 26.1064C79.0217 29.7603 77.0749 31.7061 74.1433 31.7061C71.2123 31.7061 69.2655 29.7603 69.2655 26.1064Z" fill="#036CB5"/>
<path id="Fill 36" d="M80.7139 22.089C81.6766 21.5111 83.71 20.5063 86.1698 20.5063C88.737 20.5063 89.698 21.5111 89.698 23.7117V31.4494H87.4745V24.2039C87.4745 22.5159 86.6416 22.2168 85.549 22.2168C84.6943 22.2168 83.6018 22.602 82.9391 22.9866V31.4494H80.7139V22.089H80.7139Z" fill="#036CB5"/>
<path id="Fill 38" d="M94.4078 25.0793H99.3068C99.2015 22.8359 98.1091 21.9391 96.9537 21.9391C95.6483 21.9391 94.6441 22.9434 94.4078 25.0793ZM101.018 29.0983V30.7228C100.056 31.2783 98.772 31.7061 97.2313 31.7061C93.639 31.7061 92.1619 29.4834 92.1619 26.1071C92.1619 22.8573 93.8083 20.5063 97.0179 20.5063C99.6932 20.5063 101.341 22.2386 101.341 25.7213V26.5122H94.3657C94.3657 29.076 95.4142 30.209 97.6179 30.209C98.772 30.209 99.8434 29.8022 101.018 29.0983Z" fill="#036CB5"/>
<path id="Fill 40" d="M110.228 20.5063H112.518L108.645 31.1908C107.574 34.1403 106.27 35.6792 103.81 35.6792V33.9279C105.266 33.9279 106.163 32.7733 106.678 31.1908L102.57 20.5063H104.923L107.662 28.3709H107.79L110.228 20.5063Z" fill="#036CB5"/>
</g>
</g>
</g>
</g>
</g>
</g>
<defs>
<clipPath id="clip0_0_1">
<rect width="166" height="50" fill="white"/>
</clipPath>
</defs>
</svg>
