<svg width="437" height="231" viewBox="0 0 437 231" fill="none" xmlns="http://www.w3.org/2000/svg">
<path d="M0 34L323 54.3713V160H27.9229L0 34Z" fill="#03FFA4" fill-opacity="0.5"/>
<path d="M102 34L425 54.3713V160L129.923 202L102 34Z" fill="#03FFA4" fill-opacity="0.5"/>
<path d="M417 198L231.5 187.5L422.5 160.5L417 198Z" fill="#03FFA4" fill-opacity="0.25"/>
<path d="M369 195L417 198L352 230.5L369 195Z" fill="#03FFA4" fill-opacity="0.5"/>
<path d="M9 0L437 27V167H46L9 0Z" fill="#03FFA4"/>
<path d="M26 12L425 34.9581V154H60.493L26 12Z" fill="#27272D"/>
<path d="M128.852 64V52.625H132.75C134.036 52.625 135.016 52.8828 135.688 53.3984C136.359 53.9141 136.695 54.6823 136.695 55.7031C136.695 56.224 136.555 56.6927 136.273 57.1094C135.992 57.526 135.581 57.849 135.039 58.0781C135.654 58.2448 136.128 58.5599 136.461 59.0234C136.799 59.4818 136.969 60.0339 136.969 60.6797C136.969 61.7474 136.625 62.5677 135.938 63.1406C135.255 63.7135 134.276 64 133 64H128.852ZM130.828 58.8672V62.4219H133.023C133.643 62.4219 134.128 62.2682 134.477 61.9609C134.826 61.6536 135 61.2266 135 60.6797C135 59.4974 134.396 58.8932 133.188 58.8672H130.828ZM130.828 57.4141H132.766C133.38 57.4141 133.859 57.276 134.203 57C134.552 56.7188 134.727 56.3229 134.727 55.8125C134.727 55.25 134.565 54.8438 134.242 54.5938C133.924 54.3438 133.427 54.2188 132.75 54.2188H130.828V57.4141ZM143.812 64C143.729 63.8385 143.656 63.5755 143.594 63.2109C142.99 63.8411 142.25 64.1562 141.375 64.1562C140.526 64.1562 139.833 63.9141 139.297 63.4297C138.76 62.9453 138.492 62.3464 138.492 61.6328C138.492 60.7318 138.826 60.0417 139.492 59.5625C140.164 59.0781 141.122 58.8359 142.367 58.8359H143.531V58.2812C143.531 57.8438 143.409 57.4948 143.164 57.2344C142.919 56.9688 142.547 56.8359 142.047 56.8359C141.615 56.8359 141.26 56.9453 140.984 57.1641C140.708 57.3776 140.57 57.651 140.57 57.9844H138.672C138.672 57.5208 138.826 57.0885 139.133 56.6875C139.44 56.2812 139.857 55.9635 140.383 55.7344C140.914 55.5052 141.505 55.3906 142.156 55.3906C143.146 55.3906 143.935 55.6406 144.523 56.1406C145.112 56.6354 145.414 57.3333 145.43 58.2344V62.0469C145.43 62.8073 145.536 63.4141 145.75 63.8672V64H143.812ZM141.727 62.6328C142.102 62.6328 142.453 62.5417 142.781 62.3594C143.115 62.1771 143.365 61.9323 143.531 61.625V60.0312H142.508C141.805 60.0312 141.276 60.1536 140.922 60.3984C140.568 60.6432 140.391 60.9896 140.391 61.4375C140.391 61.8021 140.51 62.0938 140.75 62.3125C140.995 62.526 141.32 62.6328 141.727 62.6328ZM149.391 55.5469V62.4844H152.031V55.5469H153.93V62.4844H156.578V55.5469H158.469V64H147.492V55.5469H149.391ZM167.516 60.6562H166.555V64H164.656V55.5469H166.555V58.9219H167.391L169.727 55.5469H172.07L169.016 59.5938L172.328 64H169.859L167.516 60.6562ZM180.555 55.5469V64H178.656V57.0781H176.266L176.109 60.0234C176.01 61.4401 175.737 62.4583 175.289 63.0781C174.846 63.6927 174.167 64 173.25 64H172.664L172.656 62.4219L173.047 62.3828C173.464 62.3255 173.766 62.0729 173.953 61.625C174.146 61.1719 174.268 60.349 174.32 59.1562L174.477 55.5469H180.555ZM184.633 58.9453H186.227C186.367 57.8672 186.784 57.0052 187.477 56.3594C188.169 55.7135 189.044 55.3906 190.102 55.3906C191.242 55.3906 192.167 55.7578 192.875 56.4922C193.589 57.2266 193.974 58.2005 194.031 59.4141L194.039 59.8594C194.039 60.6927 193.878 61.4375 193.555 62.0938C193.237 62.75 192.779 63.2578 192.18 63.6172C191.586 63.9766 190.898 64.1562 190.117 64.1562C189.023 64.1562 188.125 63.8177 187.422 63.1406C186.724 62.4635 186.32 61.5729 186.211 60.4688H184.633V64H182.734V55.5469H184.633V58.9453ZM188.078 59.8594C188.078 60.7292 188.258 61.4115 188.617 61.9062C188.977 62.3958 189.477 62.6406 190.117 62.6406C190.758 62.6406 191.255 62.3906 191.609 61.8906C191.964 61.3906 192.141 60.6589 192.141 59.6953C192.141 58.8255 191.956 58.1458 191.586 57.6562C191.221 57.1615 190.727 56.9141 190.102 56.9141C189.482 56.9141 188.99 57.1615 188.625 57.6562C188.26 58.1458 188.078 58.8802 188.078 59.8594ZM202.383 64H200.484V61.1797C199.995 61.2943 199.479 61.3516 198.938 61.3516C197.781 61.3516 196.898 61.0755 196.289 60.5234C195.68 59.9661 195.375 59.1693 195.375 58.1328V55.5391H197.273V58.1328C197.273 58.7474 197.409 59.1823 197.68 59.4375C197.956 59.6927 198.375 59.8203 198.938 59.8203C199.448 59.8203 199.964 59.7604 200.484 59.6406V55.5469H202.383V64ZM211.344 61.2812L213.062 55.5469H215.086L211.727 65.2812C211.211 66.7031 210.336 67.4141 209.102 67.4141C208.826 67.4141 208.521 67.3672 208.188 67.2734V65.8047L208.547 65.8281C209.026 65.8281 209.385 65.7396 209.625 65.5625C209.87 65.3906 210.062 65.099 210.203 64.6875L210.477 63.9609L207.508 55.5469H209.555L211.344 61.2812ZM223.625 60.6016H222.617V64H220.719V60.6016H219.719L217.773 64H215.445L218.25 59.6016L215.594 55.5469H217.914L219.828 58.8672H220.719V55.5469H222.617V58.8672H223.516L225.438 55.5469H227.758L225.109 59.5781L227.93 64H225.57L223.625 60.6016ZM232.672 64.1562C231.469 64.1562 230.492 63.7786 229.742 63.0234C228.997 62.263 228.625 61.2526 228.625 59.9922V59.7578C228.625 58.9141 228.786 58.1615 229.109 57.5C229.438 56.8333 229.896 56.3151 230.484 55.9453C231.073 55.5755 231.729 55.3906 232.453 55.3906C233.604 55.3906 234.492 55.7578 235.117 56.4922C235.747 57.2266 236.062 58.2656 236.062 59.6094V60.375H230.539C230.596 61.0729 230.828 61.625 231.234 62.0312C231.646 62.4375 232.161 62.6406 232.781 62.6406C233.651 62.6406 234.359 62.2891 234.906 61.5859L235.93 62.5625C235.591 63.0677 235.138 63.4609 234.57 63.7422C234.008 64.0182 233.375 64.1562 232.672 64.1562ZM232.445 56.9141C231.924 56.9141 231.503 57.0964 231.18 57.4609C230.862 57.8255 230.659 58.3333 230.57 58.9844H234.188V58.8438C234.146 58.2083 233.977 57.7292 233.68 57.4062C233.383 57.0781 232.971 56.9141 232.445 56.9141ZM241.172 59.6953C241.172 58.8672 241.336 58.1224 241.664 57.4609C241.992 56.7943 242.453 56.2839 243.047 55.9297C243.641 55.5703 244.323 55.3906 245.094 55.3906C246.234 55.3906 247.159 55.7578 247.867 56.4922C248.581 57.2266 248.966 58.2005 249.023 59.4141L249.031 59.8594C249.031 60.6927 248.87 61.4375 248.547 62.0938C248.229 62.75 247.771 63.2578 247.172 63.6172C246.578 63.9766 245.891 64.1562 245.109 64.1562C243.917 64.1562 242.961 63.7604 242.242 62.9688C241.529 62.1719 241.172 61.112 241.172 59.7891V59.6953ZM243.07 59.8594C243.07 60.7292 243.25 61.4115 243.609 61.9062C243.969 62.3958 244.469 62.6406 245.109 62.6406C245.75 62.6406 246.247 62.3906 246.602 61.8906C246.961 61.3906 247.141 60.6589 247.141 59.6953C247.141 58.8411 246.956 58.1641 246.586 57.6641C246.221 57.1641 245.724 56.9141 245.094 56.9141C244.474 56.9141 243.982 57.1615 243.617 57.6562C243.253 58.1458 243.07 58.8802 243.07 59.8594ZM257.055 57.0547H254.312V64H252.414V57.0547H249.703V55.5469H257.055V57.0547ZM265.492 64H263.594V57.0781H260.297V64H258.398V55.5469H265.492V64ZM274.914 59.8594C274.914 61.1667 274.617 62.2109 274.023 62.9922C273.43 63.7682 272.633 64.1562 271.633 64.1562C270.706 64.1562 269.964 63.8516 269.406 63.2422V67.25H267.508V55.5469H269.258L269.336 56.4062C269.893 55.7292 270.651 55.3906 271.609 55.3906C272.641 55.3906 273.448 55.776 274.031 56.5469C274.62 57.3125 274.914 58.3776 274.914 59.7422V59.8594ZM273.023 59.6953C273.023 58.8516 272.854 58.1823 272.516 57.6875C272.182 57.1927 271.703 56.9453 271.078 56.9453C270.302 56.9453 269.745 57.2656 269.406 57.9062V61.6562C269.75 62.3125 270.312 62.6406 271.094 62.6406C271.698 62.6406 272.169 62.3984 272.508 61.9141C272.852 61.4245 273.023 60.6849 273.023 59.6953ZM281.578 64C281.495 63.8385 281.422 63.5755 281.359 63.2109C280.755 63.8411 280.016 64.1562 279.141 64.1562C278.292 64.1562 277.599 63.9141 277.062 63.4297C276.526 62.9453 276.258 62.3464 276.258 61.6328C276.258 60.7318 276.591 60.0417 277.258 59.5625C277.93 59.0781 278.888 58.8359 280.133 58.8359H281.297V58.2812C281.297 57.8438 281.174 57.4948 280.93 57.2344C280.685 56.9688 280.312 56.8359 279.812 56.8359C279.38 56.8359 279.026 56.9453 278.75 57.1641C278.474 57.3776 278.336 57.651 278.336 57.9844H276.438C276.438 57.5208 276.591 57.0885 276.898 56.6875C277.206 56.2812 277.622 55.9635 278.148 55.7344C278.68 55.5052 279.271 55.3906 279.922 55.3906C280.911 55.3906 281.701 55.6406 282.289 56.1406C282.878 56.6354 283.18 57.3333 283.195 58.2344V62.0469C283.195 62.8073 283.302 63.4141 283.516 63.8672V64H281.578ZM279.492 62.6328C279.867 62.6328 280.219 62.5417 280.547 62.3594C280.88 62.1771 281.13 61.9323 281.297 61.625V60.0312H280.273C279.57 60.0312 279.042 60.1536 278.688 60.3984C278.333 60.6432 278.156 60.9896 278.156 61.4375C278.156 61.8021 278.276 62.0938 278.516 62.3125C278.76 62.526 279.086 62.6328 279.492 62.6328ZM285.328 64V55.5469H288.758C289.914 55.5469 290.794 55.75 291.398 56.1562C292.003 56.5573 292.305 57.1354 292.305 57.8906C292.305 58.2812 292.182 58.6328 291.938 58.9453C291.698 59.2526 291.341 59.4896 290.867 59.6562C291.419 59.7708 291.857 60.0026 292.18 60.3516C292.503 60.7005 292.664 61.112 292.664 61.5859C292.664 62.3724 292.372 62.9714 291.789 63.3828C291.211 63.7943 290.378 64 289.289 64H285.328ZM287.227 60.3984V62.5H289.305C290.279 62.5 290.766 62.151 290.766 61.4531C290.766 60.75 290.271 60.3984 289.281 60.3984H287.227ZM287.227 59.0391H288.789C289.867 59.0391 290.406 58.7214 290.406 58.0859C290.406 57.4193 289.896 57.0755 288.875 57.0547H287.227V59.0391ZM301.492 55.5469V64H299.594V57.0781H297.203L297.047 60.0234C296.948 61.4401 296.674 62.4583 296.227 63.0781C295.784 63.6927 295.104 64 294.188 64H293.602L293.594 62.4219L293.984 62.3828C294.401 62.3255 294.703 62.0729 294.891 61.625C295.083 61.1719 295.206 60.349 295.258 59.1562L295.414 55.5469H301.492ZM307.234 64.1562C306.031 64.1562 305.055 63.7786 304.305 63.0234C303.56 62.263 303.188 61.2526 303.188 59.9922V59.7578C303.188 58.9141 303.349 58.1615 303.672 57.5C304 56.8333 304.458 56.3151 305.047 55.9453C305.635 55.5755 306.292 55.3906 307.016 55.3906C308.167 55.3906 309.055 55.7578 309.68 56.4922C310.31 57.2266 310.625 58.2656 310.625 59.6094V60.375H305.102C305.159 61.0729 305.391 61.625 305.797 62.0312C306.208 62.4375 306.724 62.6406 307.344 62.6406C308.214 62.6406 308.922 62.2891 309.469 61.5859L310.492 62.5625C310.154 63.0677 309.701 63.4609 309.133 63.7422C308.57 64.0182 307.938 64.1562 307.234 64.1562ZM307.008 56.9141C306.487 56.9141 306.065 57.0964 305.742 57.4609C305.424 57.8255 305.221 58.3333 305.133 58.9844H308.75V58.8438C308.708 58.2083 308.539 57.7292 308.242 57.4062C307.945 57.0781 307.534 56.9141 307.008 56.9141ZM319.266 64H317.367V60.5859H314.078V64H312.18V55.5469H314.078V59.0703H317.367V55.5469H319.266V64ZM159.484 83H157.586V79.5859H154.297V83H152.398V74.5469H154.297V78.0703H157.586V74.5469H159.484V83ZM166.562 83C166.479 82.8385 166.406 82.5755 166.344 82.2109C165.74 82.8411 165 83.1562 164.125 83.1562C163.276 83.1562 162.583 82.9141 162.047 82.4297C161.51 81.9453 161.242 81.3464 161.242 80.6328C161.242 79.7318 161.576 79.0417 162.242 78.5625C162.914 78.0781 163.872 77.8359 165.117 77.8359H166.281V77.2812C166.281 76.8438 166.159 76.4948 165.914 76.2344C165.669 75.9688 165.297 75.8359 164.797 75.8359C164.365 75.8359 164.01 75.9453 163.734 76.1641C163.458 76.3776 163.32 76.651 163.32 76.9844H161.422C161.422 76.5208 161.576 76.0885 161.883 75.6875C162.19 75.2812 162.607 74.9635 163.133 74.7344C163.664 74.5052 164.255 74.3906 164.906 74.3906C165.896 74.3906 166.685 74.6406 167.273 75.1406C167.862 75.6354 168.164 76.3333 168.18 77.2344V81.0469C168.18 81.8073 168.286 82.4141 168.5 82.8672V83H166.562ZM164.477 81.6328C164.852 81.6328 165.203 81.5417 165.531 81.3594C165.865 81.1771 166.115 80.9323 166.281 80.625V79.0312H165.258C164.555 79.0312 164.026 79.1536 163.672 79.3984C163.318 79.6432 163.141 79.9896 163.141 80.4375C163.141 80.8021 163.26 81.0938 163.5 81.3125C163.745 81.526 164.07 81.6328 164.477 81.6328ZM181.32 83H179.422V76.0781H176.125V83H174.227V74.5469H181.32V83ZM182.984 78.6953C182.984 77.8672 183.148 77.1224 183.477 76.4609C183.805 75.7943 184.266 75.2839 184.859 74.9297C185.453 74.5703 186.135 74.3906 186.906 74.3906C188.047 74.3906 188.971 74.7578 189.68 75.4922C190.393 76.2266 190.779 77.2005 190.836 78.4141L190.844 78.8594C190.844 79.6927 190.682 80.4375 190.359 81.0938C190.042 81.75 189.583 82.2578 188.984 82.6172C188.391 82.9766 187.703 83.1562 186.922 83.1562C185.729 83.1562 184.773 82.7604 184.055 81.9688C183.341 81.1719 182.984 80.112 182.984 78.7891V78.6953ZM184.883 78.8594C184.883 79.7292 185.062 80.4115 185.422 80.9062C185.781 81.3958 186.281 81.6406 186.922 81.6406C187.562 81.6406 188.06 81.3906 188.414 80.8906C188.773 80.3906 188.953 79.6589 188.953 78.6953C188.953 77.8411 188.768 77.1641 188.398 76.6641C188.034 76.1641 187.536 75.9141 186.906 75.9141C186.286 75.9141 185.794 76.1615 185.43 76.6562C185.065 77.1458 184.883 77.8802 184.883 78.8594ZM199.227 83H197.328V80.1797C196.839 80.2943 196.323 80.3516 195.781 80.3516C194.625 80.3516 193.742 80.0755 193.133 79.5234C192.523 78.9661 192.219 78.1693 192.219 77.1328V74.5391H194.117V77.1328C194.117 77.7474 194.253 78.1823 194.523 78.4375C194.799 78.6927 195.219 78.8203 195.781 78.8203C196.292 78.8203 196.807 78.7604 197.328 78.6406V74.5469H199.227V83ZM207.898 76.0547H205.156V83H203.258V76.0547H200.547V74.5469H207.898V76.0547ZM208.578 78.6953C208.578 77.8672 208.742 77.1224 209.07 76.4609C209.398 75.7943 209.859 75.2839 210.453 74.9297C211.047 74.5703 211.729 74.3906 212.5 74.3906C213.641 74.3906 214.565 74.7578 215.273 75.4922C215.987 76.2266 216.372 77.2005 216.43 78.4141L216.438 78.8594C216.438 79.6927 216.276 80.4375 215.953 81.0938C215.635 81.75 215.177 82.2578 214.578 82.6172C213.984 82.9766 213.297 83.1562 212.516 83.1562C211.323 83.1562 210.367 82.7604 209.648 81.9688C208.935 81.1719 208.578 80.112 208.578 78.7891V78.6953ZM210.477 78.8594C210.477 79.7292 210.656 80.4115 211.016 80.9062C211.375 81.3958 211.875 81.6406 212.516 81.6406C213.156 81.6406 213.654 81.3906 214.008 80.8906C214.367 80.3906 214.547 79.6589 214.547 78.6953C214.547 77.8411 214.362 77.1641 213.992 76.6641C213.628 76.1641 213.13 75.9141 212.5 75.9141C211.88 75.9141 211.388 76.1615 211.023 76.6562C210.659 77.1458 210.477 77.8802 210.477 78.8594ZM218.188 83V74.5469H221.617C222.773 74.5469 223.654 74.75 224.258 75.1562C224.862 75.5573 225.164 76.1354 225.164 76.8906C225.164 77.2812 225.042 77.6328 224.797 77.9453C224.557 78.2526 224.201 78.4896 223.727 78.6562C224.279 78.7708 224.716 79.0026 225.039 79.3516C225.362 79.7005 225.523 80.112 225.523 80.5859C225.523 81.3724 225.232 81.9714 224.648 82.3828C224.07 82.7943 223.237 83 222.148 83H218.188ZM220.086 79.3984V81.5H222.164C223.138 81.5 223.625 81.151 223.625 80.4531C223.625 79.75 223.13 79.3984 222.141 79.3984H220.086ZM220.086 78.0391H221.648C222.727 78.0391 223.266 77.7214 223.266 77.0859C223.266 76.4193 222.755 76.0755 221.734 76.0547H220.086V78.0391ZM229.211 77.2344H231.07C231.763 77.2344 232.367 77.3542 232.883 77.5938C233.398 77.8333 233.789 78.1693 234.055 78.6016C234.326 79.0339 234.461 79.5365 234.461 80.1094C234.461 80.9792 234.154 81.6771 233.539 82.2031C232.924 82.7292 232.107 82.9948 231.086 83H227.312V74.5469H229.211V77.2344ZM237.766 83H235.867V74.5469H237.766V83ZM229.211 78.7578V81.4844H231.062C231.526 81.4844 231.891 81.3698 232.156 81.1406C232.427 80.9062 232.562 80.5755 232.562 80.1484C232.562 79.7214 232.43 79.3854 232.164 79.1406C231.904 78.8906 231.549 78.763 231.102 78.7578H229.211ZM245.32 74.5469H247.211V83H245.32V77.3594L242.008 83H240.117V74.5469H242.008V80.1875L245.32 74.5469ZM246.211 71.3047C246.211 71.9609 245.982 72.4922 245.523 72.8984C245.065 73.3047 244.453 73.5078 243.688 73.5078C242.922 73.5078 242.31 73.3047 241.852 72.8984C241.393 72.4922 241.164 71.9609 241.164 71.3047H242.586C242.586 71.6484 242.682 71.9167 242.875 72.1094C243.073 72.2969 243.344 72.3906 243.688 72.3906C244.031 72.3906 244.299 72.2969 244.492 72.1094C244.685 71.9167 244.781 71.6484 244.781 71.3047H246.211ZM258.266 83C258.182 82.8385 258.109 82.5755 258.047 82.2109C257.443 82.8411 256.703 83.1562 255.828 83.1562C254.979 83.1562 254.286 82.9141 253.75 82.4297C253.214 81.9453 252.945 81.3464 252.945 80.6328C252.945 79.7318 253.279 79.0417 253.945 78.5625C254.617 78.0781 255.576 77.8359 256.82 77.8359H257.984V77.2812C257.984 76.8438 257.862 76.4948 257.617 76.2344C257.372 75.9688 257 75.8359 256.5 75.8359C256.068 75.8359 255.714 75.9453 255.438 76.1641C255.161 76.3776 255.023 76.651 255.023 76.9844H253.125C253.125 76.5208 253.279 76.0885 253.586 75.6875C253.893 75.2812 254.31 74.9635 254.836 74.7344C255.367 74.5052 255.958 74.3906 256.609 74.3906C257.599 74.3906 258.388 74.6406 258.977 75.1406C259.565 75.6354 259.867 76.3333 259.883 77.2344V81.0469C259.883 81.8073 259.99 82.4141 260.203 82.8672V83H258.266ZM256.18 81.6328C256.555 81.6328 256.906 81.5417 257.234 81.3594C257.568 81.1771 257.818 80.9323 257.984 80.625V79.0312H256.961C256.258 79.0312 255.729 79.1536 255.375 79.3984C255.021 79.6432 254.844 79.9896 254.844 80.4375C254.844 80.8021 254.964 81.0938 255.203 81.3125C255.448 81.526 255.773 81.6328 256.18 81.6328ZM261.906 81.4844C262.432 80.8958 262.784 80.3385 262.961 79.8125C263.143 79.2812 263.253 78.6042 263.289 77.7812L263.398 74.5469H269.266V81.4844H270.438V85.5156H268.547V83H263.125V85.5156H261.203L261.211 81.4844H261.906ZM264.133 81.4844H267.375V76.1797H265.242L265.188 77.7969C265.115 79.349 264.763 80.5781 264.133 81.4844ZM279.055 78.8594C279.055 80.1667 278.758 81.2109 278.164 81.9922C277.57 82.7682 276.773 83.1562 275.773 83.1562C274.846 83.1562 274.104 82.8516 273.547 82.2422V86.25H271.648V74.5469H273.398L273.477 75.4062C274.034 74.7292 274.792 74.3906 275.75 74.3906C276.781 74.3906 277.589 74.776 278.172 75.5469C278.76 76.3125 279.055 77.3776 279.055 78.7422V78.8594ZM277.164 78.6953C277.164 77.8516 276.995 77.1823 276.656 76.6875C276.323 76.1927 275.844 75.9453 275.219 75.9453C274.443 75.9453 273.885 76.2656 273.547 76.9062V80.6562C273.891 81.3125 274.453 81.6406 275.234 81.6406C275.839 81.6406 276.31 81.3984 276.648 80.9141C276.992 80.4245 277.164 79.6849 277.164 78.6953ZM284.391 83.1562C283.188 83.1562 282.211 82.7786 281.461 82.0234C280.716 81.263 280.344 80.2526 280.344 78.9922V78.7578C280.344 77.9141 280.505 77.1615 280.828 76.5C281.156 75.8333 281.615 75.3151 282.203 74.9453C282.792 74.5755 283.448 74.3906 284.172 74.3906C285.323 74.3906 286.211 74.7578 286.836 75.4922C287.466 76.2266 287.781 77.2656 287.781 78.6094V79.375H282.258C282.315 80.0729 282.547 80.625 282.953 81.0312C283.365 81.4375 283.88 81.6406 284.5 81.6406C285.37 81.6406 286.078 81.2891 286.625 80.5859L287.648 81.5625C287.31 82.0677 286.857 82.4609 286.289 82.7422C285.727 83.0182 285.094 83.1562 284.391 83.1562ZM284.164 75.9141C283.643 75.9141 283.221 76.0964 282.898 76.4609C282.581 76.8255 282.378 77.3333 282.289 77.9844H285.906V77.8438C285.865 77.2083 285.695 76.7292 285.398 76.4062C285.102 76.0781 284.69 75.9141 284.164 75.9141ZM292.734 81.6406C293.208 81.6406 293.602 81.5026 293.914 81.2266C294.227 80.9505 294.393 80.6094 294.414 80.2031H296.203C296.182 80.7292 296.018 81.2214 295.711 81.6797C295.404 82.1328 294.987 82.4922 294.461 82.7578C293.935 83.0234 293.367 83.1562 292.758 83.1562C291.576 83.1562 290.638 82.7734 289.945 82.0078C289.253 81.2422 288.906 80.1849 288.906 78.8359V78.6406C288.906 77.3542 289.25 76.3255 289.938 75.5547C290.625 74.7786 291.562 74.3906 292.75 74.3906C293.755 74.3906 294.573 74.6849 295.203 75.2734C295.839 75.8568 296.172 76.625 296.203 77.5781H294.414C294.393 77.0938 294.227 76.6953 293.914 76.3828C293.607 76.0703 293.214 75.9141 292.734 75.9141C292.12 75.9141 291.646 76.138 291.312 76.5859C290.979 77.0286 290.81 77.7031 290.805 78.6094V78.9141C290.805 79.8307 290.969 80.5156 291.297 80.9688C291.63 81.4167 292.109 81.6406 292.734 81.6406ZM129.367 96.9219H124.695V100.422H130.156V102H122.719V90.625H130.102V92.2188H124.695V95.3594H129.367V96.9219ZM134.898 100.641C135.372 100.641 135.766 100.503 136.078 100.227C136.391 99.9505 136.557 99.6094 136.578 99.2031H138.367C138.346 99.7292 138.182 100.221 137.875 100.68C137.568 101.133 137.151 101.492 136.625 101.758C136.099 102.023 135.531 102.156 134.922 102.156C133.74 102.156 132.802 101.773 132.109 101.008C131.417 100.242 131.07 99.1849 131.07 97.8359V97.6406C131.07 96.3542 131.414 95.3255 132.102 94.5547C132.789 93.7786 133.727 93.3906 134.914 93.3906C135.919 93.3906 136.737 93.6849 137.367 94.2734C138.003 94.8568 138.336 95.625 138.367 96.5781H136.578C136.557 96.0938 136.391 95.6953 136.078 95.3828C135.771 95.0703 135.378 94.9141 134.898 94.9141C134.284 94.9141 133.81 95.138 133.477 95.5859C133.143 96.0286 132.974 96.7031 132.969 97.6094V97.9141C132.969 98.8307 133.133 99.5156 133.461 99.9688C133.794 100.417 134.273 100.641 134.898 100.641ZM146.984 93.5469V102H145.086V95.0781H142.695L142.539 98.0234C142.44 99.4401 142.167 100.458 141.719 101.078C141.276 101.693 140.596 102 139.68 102H139.094L139.086 100.422L139.477 100.383C139.893 100.326 140.195 100.073 140.383 99.625C140.576 99.1719 140.698 98.349 140.75 97.1562L140.906 93.5469H146.984ZM154.281 93.5469H156.172V102H154.281V96.3594L150.969 102H149.078V93.5469H150.969V99.1875L154.281 93.5469ZM162.32 102V93.5469H165.75C166.906 93.5469 167.786 93.75 168.391 94.1562C168.995 94.5573 169.297 95.1354 169.297 95.8906C169.297 96.2812 169.174 96.6328 168.93 96.9453C168.69 97.2526 168.333 97.4896 167.859 97.6562C168.411 97.7708 168.849 98.0026 169.172 98.3516C169.495 98.7005 169.656 99.112 169.656 99.5859C169.656 100.372 169.365 100.971 168.781 101.383C168.203 101.794 167.37 102 166.281 102H162.32ZM164.219 98.3984V100.5H166.297C167.271 100.5 167.758 100.151 167.758 99.4531C167.758 98.75 167.263 98.3984 166.273 98.3984H164.219ZM164.219 97.0391H165.781C166.859 97.0391 167.398 96.7214 167.398 96.0859C167.398 95.4193 166.888 95.0755 165.867 95.0547H164.219V97.0391ZM173.344 96.2344H175.203C175.896 96.2344 176.5 96.3542 177.016 96.5938C177.531 96.8333 177.922 97.1693 178.188 97.6016C178.458 98.0339 178.594 98.5365 178.594 99.1094C178.594 99.9792 178.286 100.677 177.672 101.203C177.057 101.729 176.24 101.995 175.219 102H171.445V93.5469H173.344V96.2344ZM181.898 102H180V93.5469H181.898V102ZM173.344 97.7578V100.484H175.195C175.659 100.484 176.023 100.37 176.289 100.141C176.56 99.9062 176.695 99.5755 176.695 99.1484C176.695 98.7214 176.562 98.3854 176.297 98.1406C176.036 97.8906 175.682 97.763 175.234 97.7578H173.344ZM195.32 102H193.422V98.5859H190.133V102H188.234V93.5469H190.133V97.0703H193.422V93.5469H195.32V102ZM201.07 102.156C199.867 102.156 198.891 101.779 198.141 101.023C197.396 100.263 197.023 99.2526 197.023 97.9922V97.7578C197.023 96.9141 197.185 96.1615 197.508 95.5C197.836 94.8333 198.294 94.3151 198.883 93.9453C199.471 93.5755 200.128 93.3906 200.852 93.3906C202.003 93.3906 202.891 93.7578 203.516 94.4922C204.146 95.2266 204.461 96.2656 204.461 97.6094V98.375H198.938C198.995 99.0729 199.227 99.625 199.633 100.031C200.044 100.438 200.56 100.641 201.18 100.641C202.049 100.641 202.758 100.289 203.305 99.5859L204.328 100.562C203.99 101.068 203.536 101.461 202.969 101.742C202.406 102.018 201.773 102.156 201.07 102.156ZM200.844 94.9141C200.323 94.9141 199.901 95.0964 199.578 95.4609C199.26 95.8255 199.057 96.3333 198.969 96.9844H202.586V96.8438C202.544 96.2083 202.375 95.7292 202.078 95.4062C201.781 95.0781 201.37 94.9141 200.844 94.9141ZM210.07 102V93.5469H213.5C214.656 93.5469 215.536 93.75 216.141 94.1562C216.745 94.5573 217.047 95.1354 217.047 95.8906C217.047 96.2812 216.924 96.6328 216.68 96.9453C216.44 97.2526 216.083 97.4896 215.609 97.6562C216.161 97.7708 216.599 98.0026 216.922 98.3516C217.245 98.7005 217.406 99.112 217.406 99.5859C217.406 100.372 217.115 100.971 216.531 101.383C215.953 101.794 215.12 102 214.031 102H210.07ZM211.969 98.3984V100.5H214.047C215.021 100.5 215.508 100.151 215.508 99.4531C215.508 98.75 215.013 98.3984 214.023 98.3984H211.969ZM211.969 97.0391H213.531C214.609 97.0391 215.148 96.7214 215.148 96.0859C215.148 95.4193 214.638 95.0755 213.617 95.0547H211.969V97.0391ZM224.328 93.5469H226.219V102H224.328V96.3594L221.016 102H219.125V93.5469H221.016V99.1875L224.328 93.5469ZM228.273 100.484C228.799 99.8958 229.151 99.3385 229.328 98.8125C229.51 98.2812 229.62 97.6042 229.656 96.7812L229.766 93.5469H235.633V100.484H236.805V104.516H234.914V102H229.492V104.516H227.57L227.578 100.484H228.273ZM230.5 100.484H233.742V95.1797H231.609L231.555 96.7969C231.482 98.349 231.13 99.5781 230.5 100.484ZM243.297 93.5469H245.188V102H243.297V96.3594L239.984 102H238.094V93.5469H239.984V99.1875L243.297 93.5469ZM253.859 95.0547H251.117V102H249.219V95.0547H246.508V93.5469H253.859V95.0547ZM258.352 102.156C257.148 102.156 256.172 101.779 255.422 101.023C254.677 100.263 254.305 99.2526 254.305 97.9922V97.7578C254.305 96.9141 254.466 96.1615 254.789 95.5C255.117 94.8333 255.576 94.3151 256.164 93.9453C256.753 93.5755 257.409 93.3906 258.133 93.3906C259.284 93.3906 260.172 93.7578 260.797 94.4922C261.427 95.2266 261.742 96.2656 261.742 97.6094V98.375H256.219C256.276 99.0729 256.508 99.625 256.914 100.031C257.326 100.438 257.841 100.641 258.461 100.641C259.331 100.641 260.039 100.289 260.586 99.5859L261.609 100.562C261.271 101.068 260.818 101.461 260.25 101.742C259.688 102.018 259.055 102.156 258.352 102.156ZM258.125 94.9141C257.604 94.9141 257.182 95.0964 256.859 95.4609C256.542 95.8255 256.339 96.3333 256.25 96.9844H259.867V96.8438C259.826 96.2083 259.656 95.7292 259.359 95.4062C259.062 95.0781 258.651 94.9141 258.125 94.9141ZM274.375 102H272.477V95.0781H269.18V102H267.281V93.5469H274.375V102ZM281.672 93.5469H283.562V102H281.672V96.3594L278.359 102H276.469V93.5469H278.359V99.1875L281.672 93.5469ZM289.055 100.641C289.529 100.641 289.922 100.503 290.234 100.227C290.547 99.9505 290.714 99.6094 290.734 99.2031H292.523C292.503 99.7292 292.339 100.221 292.031 100.68C291.724 101.133 291.307 101.492 290.781 101.758C290.255 102.023 289.688 102.156 289.078 102.156C287.896 102.156 286.958 101.773 286.266 101.008C285.573 100.242 285.227 99.1849 285.227 97.8359V97.6406C285.227 96.3542 285.57 95.3255 286.258 94.5547C286.945 93.7786 287.883 93.3906 289.07 93.3906C290.076 93.3906 290.893 93.6849 291.523 94.2734C292.159 94.8568 292.492 95.625 292.523 96.5781H290.734C290.714 96.0938 290.547 95.6953 290.234 95.3828C289.927 95.0703 289.534 94.9141 289.055 94.9141C288.44 94.9141 287.966 95.138 287.633 95.5859C287.299 96.0286 287.13 96.7031 287.125 97.6094V97.9141C287.125 98.8307 287.289 99.5156 287.617 99.9688C287.951 100.417 288.43 100.641 289.055 100.641ZM296 96.2344H297.859C298.552 96.2344 299.156 96.3542 299.672 96.5938C300.188 96.8333 300.578 97.1693 300.844 97.6016C301.115 98.0339 301.25 98.5365 301.25 99.1094C301.25 99.9792 300.943 100.677 300.328 101.203C299.714 101.729 298.896 101.995 297.875 102H294.102V93.5469H296V96.2344ZM296 97.7578V100.484H297.852C298.315 100.484 298.68 100.37 298.945 100.141C299.216 99.9062 299.352 99.5755 299.352 99.1484C299.352 98.7214 299.219 98.3854 298.953 98.1406C298.693 97.8906 298.339 97.763 297.891 97.7578H296ZM307.789 99.6641L310.289 93.5469H312.664V102H310.766V96.4062L308.438 102H307.148L304.812 96.375V102H302.914V93.5469H305.305L307.789 99.6641ZM314.445 97.6953C314.445 96.8672 314.609 96.1224 314.938 95.4609C315.266 94.7943 315.727 94.2839 316.32 93.9297C316.914 93.5703 317.596 93.3906 318.367 93.3906C319.508 93.3906 320.432 93.7578 321.141 94.4922C321.854 95.2266 322.24 96.2005 322.297 97.4141L322.305 97.8594C322.305 98.6927 322.143 99.4375 321.82 100.094C321.503 100.75 321.044 101.258 320.445 101.617C319.852 101.977 319.164 102.156 318.383 102.156C317.19 102.156 316.234 101.76 315.516 100.969C314.802 100.172 314.445 99.112 314.445 97.7891V97.6953ZM316.344 97.8594C316.344 98.7292 316.523 99.4115 316.883 99.9062C317.242 100.396 317.742 100.641 318.383 100.641C319.023 100.641 319.521 100.391 319.875 99.8906C320.234 99.3906 320.414 98.6589 320.414 97.6953C320.414 96.8411 320.229 96.1641 319.859 95.6641C319.495 95.1641 318.997 94.9141 318.367 94.9141C317.747 94.9141 317.255 95.1615 316.891 95.6562C316.526 96.1458 316.344 96.8802 316.344 97.8594ZM324.18 104.562L323.156 103.953C323.458 103.479 323.664 103.065 323.773 102.711C323.888 102.362 323.948 102.005 323.953 101.641V100.164H325.664L325.656 101.531C325.651 102.083 325.51 102.635 325.234 103.188C324.964 103.745 324.612 104.203 324.18 104.562ZM148.18 121H146.281V114.078H142.984V121H141.086V112.547H148.18V121ZM157.602 116.859C157.602 118.167 157.305 119.211 156.711 119.992C156.117 120.768 155.32 121.156 154.32 121.156C153.393 121.156 152.651 120.852 152.094 120.242V124.25H150.195V112.547H151.945L152.023 113.406C152.581 112.729 153.339 112.391 154.297 112.391C155.328 112.391 156.135 112.776 156.719 113.547C157.307 114.312 157.602 115.378 157.602 116.742V116.859ZM155.711 116.695C155.711 115.852 155.542 115.182 155.203 114.688C154.87 114.193 154.391 113.945 153.766 113.945C152.99 113.945 152.432 114.266 152.094 114.906V118.656C152.438 119.312 153 119.641 153.781 119.641C154.385 119.641 154.857 119.398 155.195 118.914C155.539 118.424 155.711 117.685 155.711 116.695ZM158.859 116.695C158.859 115.867 159.023 115.122 159.352 114.461C159.68 113.794 160.141 113.284 160.734 112.93C161.328 112.57 162.01 112.391 162.781 112.391C163.922 112.391 164.846 112.758 165.555 113.492C166.268 114.227 166.654 115.201 166.711 116.414L166.719 116.859C166.719 117.693 166.557 118.438 166.234 119.094C165.917 119.75 165.458 120.258 164.859 120.617C164.266 120.977 163.578 121.156 162.797 121.156C161.604 121.156 160.648 120.76 159.93 119.969C159.216 119.172 158.859 118.112 158.859 116.789V116.695ZM160.758 116.859C160.758 117.729 160.938 118.411 161.297 118.906C161.656 119.396 162.156 119.641 162.797 119.641C163.438 119.641 163.935 119.391 164.289 118.891C164.648 118.391 164.828 117.659 164.828 116.695C164.828 115.841 164.643 115.164 164.273 114.664C163.909 114.164 163.411 113.914 162.781 113.914C162.161 113.914 161.669 114.161 161.305 114.656C160.94 115.146 160.758 115.88 160.758 116.859ZM168.469 121V112.547H171.898C173.055 112.547 173.935 112.75 174.539 113.156C175.143 113.557 175.445 114.135 175.445 114.891C175.445 115.281 175.323 115.633 175.078 115.945C174.839 116.253 174.482 116.49 174.008 116.656C174.56 116.771 174.997 117.003 175.32 117.352C175.643 117.701 175.805 118.112 175.805 118.586C175.805 119.372 175.513 119.971 174.93 120.383C174.352 120.794 173.518 121 172.43 121H168.469ZM170.367 117.398V119.5H172.445C173.419 119.5 173.906 119.151 173.906 118.453C173.906 117.75 173.411 117.398 172.422 117.398H170.367ZM170.367 116.039H171.93C173.008 116.039 173.547 115.721 173.547 115.086C173.547 114.419 173.036 114.076 172.016 114.055H170.367V116.039ZM181.172 121.156C179.969 121.156 178.992 120.779 178.242 120.023C177.497 119.263 177.125 118.253 177.125 116.992V116.758C177.125 115.914 177.286 115.161 177.609 114.5C177.938 113.833 178.396 113.315 178.984 112.945C179.573 112.576 180.229 112.391 180.953 112.391C182.104 112.391 182.992 112.758 183.617 113.492C184.247 114.227 184.562 115.266 184.562 116.609V117.375H179.039C179.096 118.073 179.328 118.625 179.734 119.031C180.146 119.438 180.661 119.641 181.281 119.641C182.151 119.641 182.859 119.289 183.406 118.586L184.43 119.562C184.091 120.068 183.638 120.461 183.07 120.742C182.508 121.018 181.875 121.156 181.172 121.156ZM180.945 113.914C180.424 113.914 180.003 114.096 179.68 114.461C179.362 114.826 179.159 115.333 179.07 115.984H182.688V115.844C182.646 115.208 182.477 114.729 182.18 114.406C181.883 114.078 181.471 113.914 180.945 113.914ZM193.445 116.859C193.445 118.167 193.148 119.211 192.555 119.992C191.961 120.768 191.164 121.156 190.164 121.156C189.237 121.156 188.495 120.852 187.938 120.242V124.25H186.039V112.547H187.789L187.867 113.406C188.424 112.729 189.182 112.391 190.141 112.391C191.172 112.391 191.979 112.776 192.562 113.547C193.151 114.312 193.445 115.378 193.445 116.742V116.859ZM191.555 116.695C191.555 115.852 191.385 115.182 191.047 114.688C190.714 114.193 190.234 113.945 189.609 113.945C188.833 113.945 188.276 114.266 187.938 114.906V118.656C188.281 119.312 188.844 119.641 189.625 119.641C190.229 119.641 190.701 119.398 191.039 118.914C191.383 118.424 191.555 117.685 191.555 116.695ZM196.945 115.234H198.805C199.497 115.234 200.102 115.354 200.617 115.594C201.133 115.833 201.523 116.169 201.789 116.602C202.06 117.034 202.195 117.536 202.195 118.109C202.195 118.979 201.888 119.677 201.273 120.203C200.659 120.729 199.841 120.995 198.82 121H195.047V112.547H196.945V115.234ZM196.945 116.758V119.484H198.797C199.26 119.484 199.625 119.37 199.891 119.141C200.161 118.906 200.297 118.576 200.297 118.148C200.297 117.721 200.164 117.385 199.898 117.141C199.638 116.891 199.284 116.763 198.836 116.758H196.945ZM209.195 114.055H206.453V121H204.555V114.055H201.844V112.547H209.195V114.055ZM213.688 121.156C212.484 121.156 211.508 120.779 210.758 120.023C210.013 119.263 209.641 118.253 209.641 116.992V116.758C209.641 115.914 209.802 115.161 210.125 114.5C210.453 113.833 210.911 113.315 211.5 112.945C212.089 112.576 212.745 112.391 213.469 112.391C214.62 112.391 215.508 112.758 216.133 113.492C216.763 114.227 217.078 115.266 217.078 116.609V117.375H211.555C211.612 118.073 211.844 118.625 212.25 119.031C212.661 119.438 213.177 119.641 213.797 119.641C214.667 119.641 215.375 119.289 215.922 118.586L216.945 119.562C216.607 120.068 216.154 120.461 215.586 120.742C215.023 121.018 214.391 121.156 213.688 121.156ZM213.461 113.914C212.94 113.914 212.518 114.096 212.195 114.461C211.878 114.826 211.674 115.333 211.586 115.984H215.203V115.844C215.161 115.208 214.992 114.729 214.695 114.406C214.398 114.078 213.987 113.914 213.461 113.914ZM229.711 121H227.812V114.078H224.516V121H222.617V112.547H229.711V121ZM236.781 121C236.698 120.839 236.625 120.576 236.562 120.211C235.958 120.841 235.219 121.156 234.344 121.156C233.495 121.156 232.802 120.914 232.266 120.43C231.729 119.945 231.461 119.346 231.461 118.633C231.461 117.732 231.794 117.042 232.461 116.562C233.133 116.078 234.091 115.836 235.336 115.836H236.5V115.281C236.5 114.844 236.378 114.495 236.133 114.234C235.888 113.969 235.516 113.836 235.016 113.836C234.583 113.836 234.229 113.945 233.953 114.164C233.677 114.378 233.539 114.651 233.539 114.984H231.641C231.641 114.521 231.794 114.089 232.102 113.688C232.409 113.281 232.826 112.964 233.352 112.734C233.883 112.505 234.474 112.391 235.125 112.391C236.115 112.391 236.904 112.641 237.492 113.141C238.081 113.635 238.383 114.333 238.398 115.234V119.047C238.398 119.807 238.505 120.414 238.719 120.867V121H236.781ZM234.695 119.633C235.07 119.633 235.422 119.542 235.75 119.359C236.083 119.177 236.333 118.932 236.5 118.625V117.031H235.477C234.773 117.031 234.245 117.154 233.891 117.398C233.536 117.643 233.359 117.99 233.359 118.438C233.359 118.802 233.479 119.094 233.719 119.312C233.964 119.526 234.289 119.633 234.695 119.633ZM247.555 121H245.656V114.078H242.359V121H240.461V112.547H247.555V121ZM252.578 117.656H251.617V121H249.719V112.547H251.617V115.922H252.453L254.789 112.547H257.133L254.078 116.594L257.391 121H254.922L252.578 117.656ZM261.391 118.281L263.109 112.547H265.133L261.773 122.281C261.258 123.703 260.383 124.414 259.148 124.414C258.872 124.414 258.568 124.367 258.234 124.273V122.805L258.594 122.828C259.073 122.828 259.432 122.74 259.672 122.562C259.917 122.391 260.109 122.099 260.25 121.688L260.523 120.961L257.555 112.547H259.602L261.391 118.281ZM273.688 119.641C274.161 119.641 274.555 119.503 274.867 119.227C275.18 118.951 275.346 118.609 275.367 118.203H277.156C277.135 118.729 276.971 119.221 276.664 119.68C276.357 120.133 275.94 120.492 275.414 120.758C274.888 121.023 274.32 121.156 273.711 121.156C272.529 121.156 271.591 120.773 270.898 120.008C270.206 119.242 269.859 118.185 269.859 116.836V116.641C269.859 115.354 270.203 114.326 270.891 113.555C271.578 112.779 272.516 112.391 273.703 112.391C274.708 112.391 275.526 112.685 276.156 113.273C276.792 113.857 277.125 114.625 277.156 115.578H275.367C275.346 115.094 275.18 114.695 274.867 114.383C274.56 114.07 274.167 113.914 273.688 113.914C273.073 113.914 272.599 114.138 272.266 114.586C271.932 115.029 271.763 115.703 271.758 116.609V116.914C271.758 117.831 271.922 118.516 272.25 118.969C272.583 119.417 273.062 119.641 273.688 119.641ZM285.758 121H283.859V114.078H280.562V121H278.664V112.547H285.758V121ZM292.828 121C292.745 120.839 292.672 120.576 292.609 120.211C292.005 120.841 291.266 121.156 290.391 121.156C289.542 121.156 288.849 120.914 288.312 120.43C287.776 119.945 287.508 119.346 287.508 118.633C287.508 117.732 287.841 117.042 288.508 116.562C289.18 116.078 290.138 115.836 291.383 115.836H292.547V115.281C292.547 114.844 292.424 114.495 292.18 114.234C291.935 113.969 291.562 113.836 291.062 113.836C290.63 113.836 290.276 113.945 290 114.164C289.724 114.378 289.586 114.651 289.586 114.984H287.688C287.688 114.521 287.841 114.089 288.148 113.688C288.456 113.281 288.872 112.964 289.398 112.734C289.93 112.505 290.521 112.391 291.172 112.391C292.161 112.391 292.951 112.641 293.539 113.141C294.128 113.635 294.43 114.333 294.445 115.234V119.047C294.445 119.807 294.552 120.414 294.766 120.867V121H292.828ZM290.742 119.633C291.117 119.633 291.469 119.542 291.797 119.359C292.13 119.177 292.38 118.932 292.547 118.625V117.031H291.523C290.82 117.031 290.292 117.154 289.938 117.398C289.583 117.643 289.406 117.99 289.406 118.438C289.406 118.802 289.526 119.094 289.766 119.312C290.01 119.526 290.336 119.633 290.742 119.633ZM301.453 118.664L303.953 112.547H306.328V121H304.43V115.406L302.102 121H300.812L298.477 115.375V121H296.578V112.547H298.969L301.453 118.664ZM309.648 119C310.003 119 310.276 119.102 310.469 119.305C310.661 119.503 310.758 119.753 310.758 120.055C310.758 120.352 310.661 120.599 310.469 120.797C310.276 120.99 310.003 121.086 309.648 121.086C309.31 121.086 309.042 120.99 308.844 120.797C308.646 120.604 308.547 120.357 308.547 120.055C308.547 119.753 308.643 119.503 308.836 119.305C309.029 119.102 309.299 119 309.648 119Z" fill="#03FFA4"/>
</svg>
