<svg width="154" height="129" viewBox="0 0 154 129" fill="none" xmlns="http://www.w3.org/2000/svg">
<circle cx="121.5" cy="85.5" r="32.5" transform="rotate(180 121.5 85.5)" fill="#27272D"/>
<circle cx="49.5" cy="31.5" r="22.5" transform="rotate(180 49.5 31.5)" fill="#27272D"/>
<ellipse cx="69" cy="111" rx="18" ry="18" transform="rotate(180 69 111)" fill="#27272D"/>
<ellipse cx="104" cy="26" rx="26" ry="26" transform="rotate(180 104 26)" fill="#27272D"/>
<ellipse cx="68.5" cy="71.5" rx="17.5" ry="17.5" transform="rotate(180 68.5 71.5)" fill="#27272D"/>
<ellipse cx="75" cy="48" rx="5" ry="5" transform="rotate(180 75 48)" fill="#27272D"/>
<ellipse cx="90" cy="58" rx="5" ry="5" transform="rotate(180 90 58)" fill="#27272D"/>
<ellipse cx="25" cy="83" rx="25" ry="25" transform="rotate(180 25 83)" fill="#27272D"/>
<g clip-path="url(#clip0_365_166)">
<path d="M68.6667 27.5H39.5V56.6667H68.6667V27.5Z" stroke="#03FFA4" stroke-width="4.16667" stroke-linecap="round" stroke-linejoin="round"/>
<path d="M114.5 27.5H85.3333V56.6667H114.5V27.5Z" stroke="#03FFA4" stroke-width="4.16667" stroke-linecap="round" stroke-linejoin="round"/>
<path d="M114.5 73.3333H85.3333V102.5H114.5V73.3333Z" stroke="#03FFA4" stroke-width="4.16667" stroke-linecap="round" stroke-linejoin="round"/>
<path d="M68.6667 73.3333H39.5V102.5H68.6667V73.3333Z" stroke="#03FFA4" stroke-width="4.16667" stroke-linecap="round" stroke-linejoin="round"/>
</g>
<defs>
<clipPath id="clip0_365_166">
<rect width="100" height="100" fill="white" transform="translate(27 15)"/>
</clipPath>
</defs>
</svg>
