<svg width="150" height="26" viewBox="0 0 150 26" fill="none" xmlns="http://www.w3.org/2000/svg">
<g clip-path="url(#clip0_460_588)">
<path d="M5.0162 2.51857H5.37182C5.77422 1.82739 6.40123 1.23088 7.24347 0.738529C8.08572 0.246176 9.15256 0 10.4346 0C11.5483 0 12.6151 0.22724 13.6352 0.681719C14.6552 1.1362 15.5536 1.78004 16.321 2.61326C17.0884 3.437 17.706 4.43117 18.1552 5.58631C18.6044 6.74144 18.829 8.0102 18.829 9.40204C18.829 10.7939 18.6044 12.0626 18.1552 13.2178C17.706 14.3729 17.0884 15.3576 16.321 16.1908C15.5536 17.0146 14.6552 17.6584 13.6352 18.1129C12.6151 18.5674 11.5483 18.7946 10.4346 18.7946C9.15256 18.7946 8.09507 18.5484 7.25283 18.0561C6.41058 17.5637 5.78358 16.9672 5.38117 16.276H5.0162L5.37182 18.7946V26H0.0375977V0.577567H5.0162V2.51857ZM9.2555 5.04661C8.68465 5.04661 8.14187 5.15076 7.63652 5.3496C7.12181 5.54843 6.67262 5.84195 6.28893 6.23015C5.89588 6.61835 5.58706 7.07283 5.36246 7.60306C5.13786 8.13328 5.02556 8.72979 5.02556 9.40204C5.02556 10.0743 5.13786 10.6803 5.36246 11.22C5.58706 11.7597 5.89588 12.2141 6.28893 12.5929C6.68197 12.9621 7.13117 13.2556 7.64588 13.4545C8.15123 13.6533 8.694 13.7575 9.26486 13.7575C9.83571 13.7575 10.3785 13.6533 10.8838 13.4545C11.3892 13.2462 11.8477 12.9621 12.2408 12.5929C12.6338 12.2236 12.9427 11.7597 13.1673 11.22C13.3919 10.6803 13.5042 10.0743 13.5042 9.40204C13.5042 8.72979 13.3919 8.13328 13.1673 7.60306C12.9427 7.07283 12.6338 6.61835 12.2408 6.23015C11.8477 5.84195 11.3985 5.54843 10.8838 5.3496C10.3691 5.1413 9.82636 5.04661 9.2555 5.04661Z" fill="white"/>
<path d="M21.6458 0.577567H26.6244V2.81209H26.9801C27.4573 2.04516 28.1311 1.38237 29.0108 0.833212C29.8905 0.274581 30.8637 0 31.9306 0C32.5669 0 33.1284 0.0757465 33.6057 0.236708C34.083 0.397669 34.476 0.568099 34.7849 0.766934L33.3905 5.58631C33.0816 5.41588 32.7541 5.28332 32.4079 5.18864C32.0616 5.09396 31.6218 5.04661 31.0696 5.04661C29.7407 5.04661 28.73 5.51056 28.0282 6.44792C27.3263 7.38529 26.9801 8.6067 26.9801 10.1216V18.2265H21.6365V0.577567H21.6458Z" fill="white"/>
<path d="M44.246 0C45.6029 0 46.8476 0.236708 47.9986 0.700656C49.1497 1.1646 50.1417 1.81792 50.9839 2.64166C51.8262 3.4654 52.4813 4.45958 52.9398 5.61471C53.3984 6.76985 53.6323 8.02913 53.6323 9.39257C53.6323 10.756 53.3984 12.0248 52.9398 13.1704C52.4813 14.3256 51.8262 15.3103 50.9839 16.1435C50.1417 16.9672 49.1497 17.6205 47.9986 18.0845C46.8476 18.5484 45.5936 18.7851 44.246 18.7851C42.8984 18.7851 41.6444 18.5484 40.4933 18.0845C39.3422 17.6111 38.3503 16.9672 37.508 16.1435C36.6658 15.3103 36.0107 14.3256 35.5521 13.1704C35.0936 12.0153 34.8596 10.756 34.8596 9.39257C34.8596 8.02913 35.0936 6.76038 35.5521 5.61471C36.0107 4.45958 36.6658 3.47487 37.508 2.64166C38.3503 1.80845 39.3422 1.1646 40.4933 0.700656C41.635 0.236708 42.889 0 44.246 0ZM44.246 13.7575C44.7888 13.7575 45.3035 13.6533 45.7901 13.4545C46.2767 13.2462 46.7072 12.9621 47.0909 12.5929C47.4746 12.2236 47.7647 11.7597 47.9799 11.22C48.1952 10.6803 48.2981 10.0743 48.2981 9.40204C48.2981 8.72979 48.1952 8.13328 47.9799 7.60306C47.7647 7.07283 47.4746 6.61835 47.0909 6.23015C46.7072 5.84195 46.2767 5.54843 45.7901 5.3496C45.3035 5.1413 44.7888 5.04661 44.246 5.04661C43.7032 5.04661 43.1791 5.15076 42.7019 5.3496C42.2152 5.5579 41.7847 5.85142 41.4011 6.23015C41.0174 6.61835 40.7273 7.07283 40.512 7.60306C40.2968 8.13328 40.1938 8.72979 40.1938 9.40204C40.1938 10.0743 40.2968 10.6803 40.512 11.22C40.7273 11.7597 41.0174 12.2141 41.4011 12.5929C41.7847 12.9621 42.2152 13.2556 42.7019 13.4545C43.1791 13.6533 43.6938 13.7575 44.246 13.7575Z" fill="#03FFA4"/>
<path d="M60.5764 9.25081L54.5964 0.568359H61.0069L63.6365 4.81963H63.9921L66.4159 0.568359H73.0322L66.9119 9.25081L72.9948 18.2173H66.6686L63.9266 13.9282H63.571L60.9039 18.2173H54.5684L60.5764 9.25081Z" fill="white"/>
<path d="M80.865 17.4691L73.4626 0.577637H79.6204L83.6444 10.3016H84.0001L87.8463 0.577637H93.8637L82.9332 26.0001H77.0937L80.865 17.4691Z" fill="white"/>
<path d="M99.8343 18.3779V4.9897L96.8491 6.24899L95.4172 2.88773L100.63 0.416504H103.718V18.3779H99.8343Z" fill="white"/>
<path d="M113.46 18.7944C111.803 18.7944 110.39 18.3873 109.239 17.5635C108.088 16.7398 107.293 15.5373 106.844 13.9656L110.559 12.4696C110.924 14.136 111.888 14.9598 113.469 14.9598C114.087 14.9598 114.639 14.7799 115.107 14.4106C115.575 14.0413 115.809 13.549 115.809 12.943C115.809 11.5228 114.817 10.8126 112.823 10.8126H111.289V7.24307H112.721C113.029 7.24307 113.338 7.2052 113.628 7.13892C113.918 7.07264 114.19 6.95902 114.424 6.80753C114.658 6.65604 114.845 6.46667 114.985 6.22049C115.126 5.97432 115.191 5.67133 115.191 5.30207C115.191 4.84759 115.023 4.44045 114.686 4.09012C114.349 3.73979 113.881 3.56936 113.273 3.56936C112.618 3.56936 112.094 3.74926 111.7 4.11853C111.307 4.48779 111.045 4.92333 110.905 5.43462L107.349 3.96703C107.517 3.49362 107.77 3.0202 108.088 2.54679C108.406 2.07337 108.818 1.6473 109.305 1.27803C109.801 0.899299 110.381 0.596313 111.045 0.359605C111.71 0.122897 112.468 0.00927734 113.319 0.00927734C114.199 0.00927734 115.004 0.132365 115.725 0.378542C116.445 0.624718 117.053 0.956109 117.549 1.37271C118.055 1.78932 118.438 2.29114 118.719 2.86871C119 3.44628 119.131 4.07119 119.131 4.73397C119.131 5.25472 119.065 5.73761 118.934 6.18262C118.803 6.61816 118.635 7.00636 118.429 7.34722C118.223 7.68808 117.989 7.9816 117.727 8.20884C117.465 8.44555 117.212 8.62545 116.95 8.74853V9.01365C117.783 9.34504 118.466 9.87526 119 10.6138C119.533 11.3523 119.805 12.2897 119.805 13.4259C119.805 14.1928 119.655 14.9124 119.365 15.5657C119.075 16.219 118.654 16.7871 118.111 17.27C117.568 17.7529 116.904 18.1316 116.127 18.3967C115.331 18.6619 114.442 18.7944 113.46 18.7944Z" fill="white"/>
<path d="M128.377 18.7944C126.721 18.7944 125.308 18.3873 124.157 17.5635C123.005 16.7398 122.21 15.5373 121.751 13.9656L125.467 12.4696C125.832 14.136 126.796 14.9598 128.377 14.9598C128.995 14.9598 129.547 14.7799 130.015 14.4106C130.483 14.0413 130.717 13.549 130.717 12.943C130.717 11.5228 129.725 10.8126 127.731 10.8126H126.197V7.24307H127.619C127.928 7.24307 128.237 7.2052 128.527 7.13892C128.817 7.07264 129.088 6.95902 129.322 6.80753C129.556 6.65604 129.743 6.46667 129.884 6.22049C130.024 5.97432 130.09 5.67133 130.09 5.30207C130.09 4.84759 129.921 4.44045 129.584 4.09012C129.247 3.73979 128.78 3.56936 128.171 3.56936C127.516 3.56936 126.992 3.74926 126.599 4.11853C126.206 4.48779 125.944 4.92333 125.804 5.43462L122.247 3.96703C122.425 3.49362 122.669 3.0202 122.987 2.54679C123.305 2.07337 123.717 1.6473 124.203 1.27803C124.699 0.899299 125.28 0.596313 125.944 0.359605C126.608 0.122897 127.366 0.00927734 128.218 0.00927734C129.098 0.00927734 129.903 0.132365 130.623 0.378542C131.344 0.624718 131.952 0.956109 132.448 1.37271C132.953 1.78932 133.337 2.29114 133.618 2.86871C133.899 3.44628 134.03 4.07119 134.03 4.73397C134.03 5.25472 133.964 5.73761 133.833 6.18262C133.702 6.61816 133.534 7.00636 133.328 7.34722C133.122 7.68808 132.888 7.9816 132.626 8.20884C132.364 8.44555 132.111 8.62545 131.849 8.74853V9.01365C132.682 9.34504 133.365 9.87526 133.899 10.6138C134.432 11.3523 134.703 12.2897 134.703 13.4259C134.703 14.1928 134.554 14.9124 134.263 15.5657C133.973 16.219 133.552 16.7871 133.009 17.27C132.467 17.7529 131.802 18.1316 131.026 18.3967C130.249 18.6619 129.369 18.7944 128.377 18.7944Z" fill="white"/>
<path d="M144.548 4.09998H136.79L136.846 0.42627H149.171V4.26094L140.917 18.8043L137.698 16.9674L144.679 4.36509L144.548 4.09998Z" fill="white"/>
</g>
<defs>
<clipPath id="clip0_460_588">
<rect width="149.124" height="26" fill="white" transform="translate(0.0375977)"/>
</clipPath>
</defs>
</svg>
