<svg width="24" height="24" viewBox="0 0 24 24" fill="none" xmlns="http://www.w3.org/2000/svg">
<path d="M0 3C0 1.34315 1.34315 0 3 0H21C22.6569 0 24 1.34315 24 3V21C24 22.6569 22.6569 24 21 24H3C1.34315 24 0 22.6569 0 21V3Z" fill="#27272D"/>
<mask id="path-2-inside-1_1032_982" fill="white">
<path d="M16.3799 8.82768C16.6446 8.63593 17.0175 8.69385 17.1823 8.9762C17.7315 9.91744 18.0159 10.9941 17.9992 12.0912C17.9795 13.3862 17.5413 14.6402 16.75 15.6656C15.9588 16.691 14.8569 17.4328 13.6091 17.7802C12.3614 18.1275 11.0347 18.0618 9.8274 17.5928C8.62007 17.1239 7.59692 16.2768 6.91084 15.1782C6.22476 14.0796 5.91259 12.7886 6.02097 11.4979C6.12936 10.2072 6.65249 8.98628 7.51218 8.01751C8.24043 7.19686 9.17708 6.5945 10.2176 6.2708C10.5298 6.1737 10.844 6.38269 10.9099 6.70287C10.9758 7.02306 10.7679 7.33255 10.4582 7.43719C9.66739 7.7044 8.95614 8.17384 8.3976 8.80325C7.70752 9.58088 7.28761 10.5609 7.20061 11.597C7.11361 12.633 7.36419 13.6693 7.91491 14.5512C8.46562 15.433 9.28691 16.1129 10.256 16.4894C11.2252 16.8658 12.2901 16.9186 13.2916 16.6397C14.2932 16.3609 15.1777 15.7654 15.8128 14.9424C16.448 14.1193 16.7998 13.1127 16.8156 12.0732C16.8284 11.2318 16.6205 10.4053 16.2174 9.67435C16.0596 9.3881 16.1151 9.01943 16.3799 8.82768Z"/>
</mask>
<path d="M16.3799 8.82768C16.6446 8.63593 17.0175 8.69385 17.1823 8.9762C17.7315 9.91744 18.0159 10.9941 17.9992 12.0912C17.9795 13.3862 17.5413 14.6402 16.75 15.6656C15.9588 16.691 14.8569 17.4328 13.6091 17.7802C12.3614 18.1275 11.0347 18.0618 9.8274 17.5928C8.62007 17.1239 7.59692 16.2768 6.91084 15.1782C6.22476 14.0796 5.91259 12.7886 6.02097 11.4979C6.12936 10.2072 6.65249 8.98628 7.51218 8.01751C8.24043 7.19686 9.17708 6.5945 10.2176 6.2708C10.5298 6.1737 10.844 6.38269 10.9099 6.70287C10.9758 7.02306 10.7679 7.33255 10.4582 7.43719C9.66739 7.7044 8.95614 8.17384 8.3976 8.80325C7.70752 9.58088 7.28761 10.5609 7.20061 11.597C7.11361 12.633 7.36419 13.6693 7.91491 14.5512C8.46562 15.433 9.28691 16.1129 10.256 16.4894C11.2252 16.8658 12.2901 16.9186 13.2916 16.6397C14.2932 16.3609 15.1777 15.7654 15.8128 14.9424C16.448 14.1193 16.7998 13.1127 16.8156 12.0732C16.8284 11.2318 16.6205 10.4053 16.2174 9.67435C16.0596 9.3881 16.1151 9.01943 16.3799 8.82768Z" stroke="#03FFA4" stroke-width="2.66" mask="url(#path-2-inside-1_1032_982)"/>
<path d="M14.4746 6.45779L18.257 8.0052L15.158 10.4869L14.4746 6.45779Z" fill="#03FFA4"/>
</svg>
