<svg width="104" height="38" viewBox="0 0 104 38" fill="none" xmlns="http://www.w3.org/2000/svg">
<path d="M25.8751 32.546C29.0578 32.546 32.5108 33.63 36.3328 36.9947C36.7157 37.3318 37.2254 36.913 36.8916 36.4944C33.1356 31.7828 29.6615 30.8852 26.1968 30.1268C21.9591 29.1991 19.7792 26.8301 18.2601 24.229C17.9577 23.7112 17.8223 23.8025 17.7951 24.4676C17.7619 25.2813 17.8183 26.358 18.0016 27.4173C17.8306 27.4252 17.6585 27.4228 17.4857 27.4228C11.4229 27.4228 6.50823 22.5397 6.50823 16.5164C6.50823 10.4927 11.4229 5.60975 17.4857 5.60975C23.5484 5.60975 28.4634 10.4927 28.4634 16.5164C28.4634 16.9448 28.4424 17.3685 28.394 17.7842C27.5919 17.6407 26.0144 17.6246 24.9075 17.7197C24.4911 17.7554 24.5495 17.948 24.8643 18.0046C28.4932 18.656 30.9865 20.8904 31.5563 24.9448C31.5694 25.0383 31.6921 25.0661 31.7409 24.9854C33.2341 22.5099 34.0918 19.6125 34.0918 16.5164C34.0918 7.40439 26.6571 0.0174501 17.4857 0.0174501C8.31437 0.0174501 0.879585 7.40439 0.879585 16.5164C0.879585 25.6284 8.31437 33.0161 17.4857 33.0161C19.9188 33.0161 22.3326 32.546 25.8751 32.546ZM27.1112 26.5554C27.8501 27.1763 28.075 27.914 27.6842 28.4346C27.4668 28.7198 27.1147 28.8771 26.6924 28.8771C26.2777 28.8771 25.8554 28.7247 25.5624 28.4706C24.8906 27.8872 24.6933 26.9417 25.1318 26.4044C25.3032 26.1943 25.5817 26.0785 25.9155 26.0785C26.3209 26.0785 26.7456 26.2482 27.1112 26.5554ZM30.5203 24.9796C30.6288 25.7026 30.3987 26.0021 30.1678 26.0021C29.9159 26.0021 29.5997 25.7088 29.2265 25.1306C28.8584 24.5596 28.7237 23.9045 28.9061 23.5736C29.0267 23.3545 29.279 23.2594 29.5973 23.3789C30.2134 23.6104 30.4553 24.5476 30.5203 24.9796ZM53.5396 21.2011L51.6251 18.9135C51.4247 18.6734 51.5964 18.3098 51.9102 18.3098H55.9154C56.1061 17.7457 56.2139 17.143 56.2139 16.5172C56.2139 13.6514 54.0669 11.1804 51.1202 11.1804C48.1735 11.1804 46.0265 13.6514 46.0265 16.5172C46.0265 19.3832 48.1735 21.8191 51.1202 21.8191C52.0132 21.8191 52.8311 21.5924 53.5396 21.2011ZM62.202 25.0674C62.4101 25.2961 62.2393 25.6641 61.9259 25.6641H57.5551C57.3775 25.6641 57.2085 25.5855 57.0948 25.4495L56.3539 24.5645C54.8451 25.5364 53.0485 26.1036 51.1202 26.1036C45.7998 26.1036 41.4715 21.8033 41.4715 16.5172C41.4715 11.2312 45.7998 6.93058 51.1202 6.93058C56.4406 6.93058 60.7689 11.2312 60.7689 16.5172C60.7689 18.4229 60.2043 20.1986 59.2356 21.6924L62.202 25.0674ZM102.578 7.37177H99.011C98.7491 7.37177 98.5365 7.58292 98.5365 7.84352V25.1911C98.5365 25.4513 98.7491 25.6625 99.011 25.6625H102.578C102.84 25.6625 103.052 25.4513 103.052 25.1911V7.84352C103.052 7.58292 102.84 7.37177 102.578 7.37177ZM96.5758 7.37177H92.5847C92.376 7.37177 92.1918 7.50601 92.131 7.70309L88.9728 17.9548L85.5019 7.69176C85.4373 7.50052 85.2562 7.37177 85.052 7.37177H82.267C82.0628 7.37177 81.8813 7.50052 81.8167 7.69176L78.3458 17.9548L75.1876 7.70309C75.1268 7.50601 74.9426 7.37177 74.7339 7.37177H70.7428C70.5904 7.37177 70.447 7.44421 70.3579 7.5661C70.2687 7.68833 70.2445 7.84489 70.2929 7.98737L76.1545 25.3445C76.2191 25.5353 76.4006 25.6641 76.6048 25.6641H79.7723C79.9765 25.6641 80.1576 25.5353 80.2226 25.3449L83.6593 15.2044L87.096 25.3449C87.161 25.5353 87.3421 25.6641 87.5463 25.6641H90.7138C90.918 25.6641 91.0995 25.5353 91.1641 25.3445L97.0257 7.98737C97.0741 7.84489 97.0499 7.68833 96.9607 7.5661C96.8716 7.44421 96.7281 7.37177 96.5758 7.37177ZM68.7821 7.84352V25.1911C68.7821 25.4513 68.5695 25.6625 68.3076 25.6625H64.7406C64.4786 25.6625 64.2661 25.4513 64.2661 25.1911V7.84352C64.2661 7.58292 64.4786 7.37177 64.7406 7.37177H68.3076C68.5695 7.37177 68.7821 7.58292 68.7821 7.84352Z" fill="#F57D14"/>
</svg>
