<svg width="86" height="28" viewBox="0 0 86 28" fill="none" xmlns="http://www.w3.org/2000/svg">
<g clip-path="url(#clip0_414_90)">
<path d="M37.2666 27.5961H30.3L34.6574 0.491333H41.6237L37.2666 27.5961Z" fill="#00579F"/>
<path d="M62.5212 1.15396C61.1471 0.60553 58.9676 0 56.2727 0C49.3929 0 44.5483 3.69067 44.5186 8.96721C44.4614 12.8602 47.9872 15.0225 50.6242 16.3206C53.3195 17.647 54.2357 18.5127 54.2357 19.695C54.2083 21.5109 52.0577 22.3479 50.052 22.3479C47.2706 22.3479 45.7803 21.9163 43.5155 20.9061L42.5981 20.473L41.6233 26.5575C43.2572 27.3063 46.2675 27.9709 49.3929 28C56.7028 28 61.4617 24.3664 61.5181 18.7434C61.5459 15.6579 59.6842 13.2937 55.6704 11.3617C53.2338 10.1215 51.7416 9.2853 51.7416 8.01637C51.7701 6.8628 53.0037 5.68125 55.7542 5.68125C58.019 5.62338 59.683 6.17104 60.9436 6.71908L61.5737 7.0069L62.5212 1.15396Z" fill="#00579F"/>
<path d="M71.7802 17.9938C72.3539 16.4367 74.5616 10.4101 74.5616 10.4101C74.5326 10.468 75.1342 8.82427 75.4782 7.81518L75.9651 10.1507C75.9651 10.1507 77.2843 16.6387 77.5708 17.9938C76.482 17.9938 73.1562 17.9938 71.7802 17.9938ZM80.3796 0.491333H74.9909C73.3292 0.491333 72.0667 0.981122 71.3497 2.74023L61.0017 27.5957H68.3116C68.3116 27.5957 69.515 24.2503 69.7737 23.5298C70.5756 23.5298 77.6866 23.5298 78.7182 23.5298C78.9182 24.4814 79.5495 27.5957 79.5495 27.5957H85.9999L80.3796 0.491333Z" fill="#00579F"/>
<path d="M24.4812 0.491333L17.6586 18.9742L16.9131 15.2256C15.6517 10.9003 11.6959 6.20094 7.28131 3.86429L13.5306 27.5673H20.8976L31.8479 0.491333H24.4812Z" fill="#00579F"/>
<path d="M11.3233 0.491333H0.114668L0 1.03899C8.7434 3.28827 14.534 8.71006 16.9131 15.2268L14.4765 2.76974C14.0753 1.03861 12.8425 0.548437 11.3233 0.491333Z" fill="#FAA61A"/>
</g>
<defs>
<clipPath id="clip0_414_90">
<rect width="86" height="28" fill="white"/>
</clipPath>
</defs>
</svg>
